<svg
      xmlns="http://www.w3.org/2000/svg"
      width="220"
      height="194"
      fill="none"
      viewBox="0 0 220 194"
    >
      <path
        stroke="currentcolor"
        strokeLinecap="round"
        strokeMiterlimit="10"
        strokeWidth="7"
        d="M189.709 65.732c14.271 0 25.84 11.569 25.84 25.84"
      ></path>
      <path
        fill="url(#paint0_linear_613_29)"
        d="M200.715 68.191c.116-.805.197-1.622.197-2.459 0-9.436-7.649-17.085-17.085-17.085-2.482 0-4.834.541-6.962 1.493-2.342-15.473-15.698-27.333-31.825-27.333a32.039 32.039 0 00-15.466 3.956 40.03 40.03 0 00-14.9-17.025c.231.146.463.29.691.441-3.301-.886-9.617-4.286-13.198-4.346-21.118-.355-32.832 13-35.132 30.74a30.675 30.675 0 00-8-1.061c-16.931 0-30.656 13.726-30.656 30.657 0 2.784.377 5.479 1.073 8.043-7.95 4.406-10.326 13.912-9.45 20.62 1.822 13.967 17.125 20.542 22.832 22.578 1.445.251-3.517 0-2 0H189.71c14.271 0 25.84-11.569 25.84-25.84-.001-10.332-6.069-19.246-14.835-23.379z"
      ></path>
      <path
        stroke="currentcolor"
        strokeLinecap="round"
        strokeMiterlimit="10"
        strokeWidth="7"
        d="M200.715 68.19c.116-.804.197-1.621.197-2.458 0-9.436-7.649-17.085-17.085-17.085-2.482 0-4.834.541-6.962 1.493-2.342-15.473-15.698-27.333-31.825-27.333a32.039 32.039 0 00-15.466 3.956C123.27 13.06 109.43 3.541 93.357 3.541c-17.8 0-32.87 11.67-37.986 27.777a30.675 30.675 0 00-8-1.061c-16.932 0-30.658 13.726-30.658 30.657 0 2.785.378 5.479 1.074 8.043-7.95 4.406-13.336 12.88-13.336 22.614 0 14.271 11.57 25.84 25.84 25.84H189.71c14.271 0 25.84-11.569 25.84-25.84-.001-10.333-6.069-19.247-14.835-23.38z"
      ></path>
      <path
        fill="currentcolor"
        d="M184.75 69.25s.238-.458.709-1.156c.254-.343.487-.763.952-1.165.437-.403.978-.894 1.607-1.31.629-.368 1.327-.827 2.132-1.122.804-.296 1.681-.612 2.62-.729.94-.198 1.918-.201 2.919-.193.499.014.99.094 1.488.16l.746.113.725.184c.976.234 1.897.6 2.78 1.001.443.196.848.452 1.254.69.409.233.803.473 1.156.763.742.523 1.386 1.118 1.96 1.707.575.589 1.047 1.219 1.462 1.798.386.618.733 1.165.971 1.713.239.545.439 1.008.555 1.43.234.838.294 1.338.294 1.338s-.518-.115-1.298-.353l-1.37-.414-1.662-.527-1.859-.589c-.641-.206-1.296-.419-1.965-.621-.655-.234-1.347-.39-2.011-.611-.676-.181-1.342-.396-2.014-.548a8.026 8.026 0 00-.997-.249c-.332-.063-.661-.177-.99-.236a11.648 11.648 0 01-.982-.204c-.328-.096-.649-.087-.973-.166-.65-.14-1.284-.188-1.918-.285-.635-.107-1.242-.098-1.848-.188l-1.637-.118c-.517-.078-1.042-.002-1.455-.027-.84-.017-1.351-.086-1.351-.086zM26.378 83.256l-.448-.161c-.279-.121-.713-.261-1.218-.51-.498-.262-1.147-.594-1.797-1.041-.673-.433-1.382-.983-2.128-1.63a22.02 22.02 0 01-2.205-2.301 22.79 22.79 0 01-2.039-2.945c-1.258-2.156-2.205-4.7-2.714-7.33-.244-1.317-.399-2.651-.413-3.967-.04-.656.001-1.308.037-1.95l.026-.479c.013-.239.028-.314.042-.478.022-.276.07-.57.118-.908.176-1.281.456-2.42.795-3.514a20.317 20.317 0 011.197-2.957c.884-1.766 1.884-3.076 2.655-3.922.784-.843 1.313-1.251 1.313-1.251l.005.476c-.015.3.006.756-.014 1.302-.015 1.103-.04 2.627-.019 4.363.006.868.032 1.793.078 2.753.04.949.11 1.981.195 2.952.085 1.073.217 2.068.344 3.128.065.523.151 1.047.234 1.571.068.527.168 1.05.28 1.57.168 1.052.436 2.082.667 3.11.132.509.277 1.012.393 1.521.153.495.298.99.431 1.484.308.971.606 1.926.926 2.832.316.909.642 1.773.95 2.589.32.807.615 1.568.9 2.245l.73 1.787c.453 1.029.68 1.661.68 1.661zM145.04 22.808l1.144-.143 1.373-.151c.271-.026.56-.07.872-.087l1.008.015c.713.016 1.52.016 2.397.058.858.093 1.786.233 2.79.369 1 .155 2.024.481 3.141.746 1.106.296 2.204.788 3.4 1.215.585.24 1.147.556 1.74.846.58.312 1.213.572 1.784.95 1.147.746 2.392 1.467 3.508 2.423 2.358 1.771 4.481 4.1 6.402 6.714l1.358 2.051c.441.7.786 1.461 1.185 2.201l.58 1.125.48 1.178c.302.795.644 1.584.897 2.405.46 1.656.978 3.321 1.178 5.058.14.861.288 1.723.307 2.598l.074 1.309.035.655.017.327.009.164.004.082.002.041c-.001.093.006-.149-.002.218l-.133 2.365c-.035.411-.017.749-.096 1.22l-.203 1.358c-.16.887-.235 1.846-.497 2.658l-.691 2.498c-.252.821-.598 1.609-.894 2.406l-.48 1.178-.58 1.125c-.399.74-.744 1.501-1.185 2.201l-1.357 2.053c-1.922 2.615-4.045 4.945-6.403 6.716-1.116.957-2.363 1.675-3.509 2.423-.571.378-1.205.637-1.785.949-.594.289-1.155.607-1.741.847-1.197.427-2.296.917-3.402 1.215-1.117.264-2.142.589-3.142.744-1.005.135-1.933.276-2.791.368-.869.038-1.665.037-2.375.053l-1.004.015c-.316-.015-.614-.06-.888-.086l-1.387-.151-1.141-.144 1.127-.258 1.337-.289a14.834 14.834 0 001.771-.467c.655-.202 1.377-.404 2.148-.658.756-.323 1.573-.631 2.432-.975.853-.361 1.72-.846 2.64-1.291.911-.471 1.806-1.089 2.76-1.652.902-.661 1.853-1.316 2.767-2.074.873-.815 1.854-1.541 2.673-2.5 1.792-1.745 3.312-3.904 4.713-6.175 1.385-2.302 2.382-4.881 3.195-7.533l.475-2.037c.097-.344.146-.676.181-.999l.142-.977.153-.977c.064-.306.047-.763.075-1.138l.106-2.366c-.009.343-.003.076-.006.144l-.002-.033-.003-.066-.006-.132-.013-.264-.024-.528-.045-1.056c.004-.708-.116-1.402-.221-2.096l-.148-1.041a5.982 5.982 0 00-.184-1.032l-.475-2.037c-.807-2.655-1.813-5.231-3.193-7.536-1.401-2.272-2.922-4.432-4.714-6.178-.819-.96-1.802-1.684-2.674-2.501-.914-.758-1.867-1.411-2.768-2.074-.955-.564-1.85-1.179-2.762-1.652-.921-.445-1.788-.928-2.642-1.29-.86-.343-1.677-.652-2.433-.974-.761-.251-1.473-.452-2.125-.654a14.122 14.122 0 00-1.785-.468l-1.351-.288-1.12-.256zM93.357 83.251l-1.414.129-1.697.134c-.335.022-.692.065-1.077.075l-1.24-.051c-.875-.042-1.862-.066-2.935-.143-1.05-.143-2.185-.335-3.412-.529-1.22-.216-2.47-.639-3.83-.988-.69-.154-1.333-.469-2.024-.724l-2.11-.833c-.71-.305-1.39-.702-2.11-1.067-.703-.392-1.471-.718-2.162-1.19-1.387-.932-2.898-1.825-4.244-3.009-2.852-2.189-5.41-5.053-7.725-8.248L55.742 64.3c-.533-.854-.945-1.783-1.426-2.684l-.698-1.371-.575-1.436c-.363-.968-.777-1.928-1.081-2.926l-.83-3.038c-.318-1.009-.394-2.071-.585-3.112-.17-1.046-.35-2.093-.37-3.156l-.09-1.59-.042-.796-.021-.398-.01-.199-.005-.1-.003-.05c0-.096-.006.143.002-.227l.16-2.928c.044-.505.02-.937.117-1.501l.246-1.636.256-1.631.136-.812.203-.766.83-3.038c.303-.999.72-1.957 1.078-2.928l.575-1.436.699-1.371c.48-.901.894-1.831 1.427-2.685l1.633-2.509c2.317-3.196 4.874-6.061 7.726-8.251 1.347-1.185 2.859-2.075 4.245-3.01.69-.472 1.46-.798 2.163-1.19.72-.363 1.4-.762 2.112-1.067l2.11-.832c.692-.254 1.336-.57 2.025-.724 1.36-.349 2.61-.77 3.83-.987 1.229-.192 2.364-.386 3.414-.528 1.064-.073 2.04-.096 2.913-.138l1.235-.05c.389.008.755.052 1.094.074l1.712.135 1.41.13-1.396.272-1.661.305c-.325.063-.674.118-1.043.199l-1.165.316c-.817.228-1.721.454-2.686.743-.948.372-1.973.734-3.054 1.135-1.074.422-2.165 1.003-3.33 1.533-1.15.563-2.283 1.312-3.493 1.993-.587.377-1.154.813-1.748 1.224-.577.436-1.214.803-1.768 1.31-1.113 1.001-2.36 1.899-3.41 3.087-2.285 2.163-4.24 4.857-6.035 7.71-1.776 2.89-3.07 6.141-4.111 9.496l-.613 2.576-.153.644-.084.629-.185 1.255-.196 1.255c-.081.398-.06.95-.096 1.418l-.134 2.93c.01-.34.004-.07.007-.135l.002.042.004.084.008.167.016.335.03.669.06 1.338c-.002.896.149 1.775.283 2.654l.19 1.319.088.66.153.646.614 2.577c1.035 3.358 2.337 6.607 4.108 9.5 1.797 2.853 3.75 5.549 6.037 7.713 1.049 1.188 2.298 2.083 3.41 3.087.554.507 1.192.874 1.769 1.31.594.41 1.16.848 1.748 1.225 1.21.681 2.344 1.429 3.495 1.993 1.164.53 2.256 1.109 3.33 1.532 1.082.4 2.107.763 3.055 1.134.956.286 1.849.511 2.663.738.409.111.797.216 1.16.316.374.082.732.137 1.06.2l1.676.305 1.395.274zM111.523 97.011l.748-.427c.472-.282 1.256-.626 2.077-1.199.42-.277.879-.566 1.361-.9.468-.386.983-.766 1.516-1.181.526-.427 1.041-.937 1.596-1.431.543-.511 1.052-1.116 1.606-1.693.499-.639 1.039-1.272 1.528-1.974.449-.736.998-1.416 1.384-2.236.917-1.539 1.568-3.31 2.13-5.12.539-1.832.776-3.776.882-5.734.034-1.968-.193-3.951-.619-5.899l-.431-1.511c-.082-.26-.152-.606-.243-.794l-.259-.628c-.193-.423-.282-.832-.527-1.281l-.647-1.329c-.982-1.696-2.06-3.33-3.37-4.719-1.316-1.363-2.695-2.651-4.205-3.611-.714-.558-1.508-.921-2.241-1.374-.752-.406-1.518-.731-2.252-1.075-.754-.266-1.48-.579-2.195-.79-.718-.192-1.407-.417-2.068-.561-.663-.132-1.294-.238-1.885-.373-.59-.081-1.14-.132-1.643-.19-1.009-.139-1.809-.104-2.368-.142l-.863-.045.784-.35.963-.403c.192-.076.397-.173.621-.249l.725-.196c.514-.135 1.088-.3 1.724-.451.638-.113 1.337-.195 2.094-.301.757-.089 1.563-.057 2.43-.087.864-.003 1.759.138 2.718.216.936.165 1.921.361 2.926.629.983.325 2.035.619 3.037 1.106 2.068.856 4.072 2.17 5.975 3.747.457.415.927.829 1.382 1.266.454.437.85.936 1.281 1.411l.635.727.572.784c.364.537.762 1.059 1.097 1.623.64 1.143 1.321 2.263 1.817 3.632l.396.987c.144.345.185.576.282.869l.548 1.845c.545 2.612.809 5.295.579 7.919-.047.654-.162 1.3-.252 1.942l-.158.957-.24.935c-.171.618-.299 1.241-.508 1.836l-.666 1.751c-.989 2.264-2.188 4.338-3.649 6.032-.676.885-1.48 1.623-2.214 2.353a33.995 33.995 0 01-2.328 1.878c-.821.501-1.555 1.032-2.328 1.417-.787.364-1.492.757-2.208 1.017-.723.248-1.384.488-2.004.675-.645.156-1.241.271-1.764.383l-.739.152c-.231.03-.449.035-.651.052l-1.027.071-.862.042z"
      ></path>
      <path
        fill="url(#paint1_linear_613_29)"
        d="M60.845 170.382c18.824 0 34.084-15.26 34.084-34.084 0-18.824-15.26-34.084-34.084-34.084-18.824 0-34.084 15.26-34.084 34.084 0 18.824 15.26 34.084 34.084 34.084z"
      ></path>
      <path
        fill="url(#paint2_linear_613_29)"
        d="M159.155 170.382c18.824 0 34.084-15.26 34.084-34.084 0-18.824-15.26-34.084-34.084-34.084-18.824 0-34.084 15.26-34.084 34.084 0 18.824 15.26 34.084 34.084 34.084z"
      ></path>
      <path
        fill="currentcolor"
        d="M60.845 92.988c-23.92 0-43.31 19.391-43.31 43.31 0 23.92 19.391 43.31 43.31 43.31 23.92 0 43.31-19.391 43.31-43.31 0-23.919-19.39-43.31-43.31-43.31zm0 73.621c-16.74 0-30.31-13.57-30.31-30.31s13.57-30.31 30.31-30.31 30.31 13.57 30.31 30.31-13.57 30.31-30.31 30.31zM159.155 92.988c-23.92 0-43.31 19.391-43.31 43.31 0 23.92 19.391 43.31 43.31 43.31 23.92 0 43.31-19.391 43.31-43.31.001-23.919-19.39-43.31-43.31-43.31zm0 73.621c-16.74 0-30.31-13.57-30.31-30.31s13.57-30.31 30.31-30.31 30.31 13.57 30.31 30.31-13.57 30.31-30.31 30.31z"
      ></path>
      <path
        stroke="currentcolor"
        strokeMiterlimit="10"
        strokeWidth="11"
        d="M125.5 118.185c-4.802-2.426-10.027-3.773-15.5-3.773-5.473 0-10.698 1.347-15.5 3.773"
      ></path>
      <path
        fill="currentcolor"
        d="M207.638 126.991h-13.151v-11h13.435a5.358 5.358 0 015.358 5.358 5.642 5.642 0 01-5.642 5.642zM25.227 126.991H12.36a5.642 5.642 0 01-5.642-5.642 5.358 5.358 0 015.358-5.358h13.15c.158 0 .285.127.285.284v10.431a.283.283 0 01-.284.285zM67.902 146.572c-.718 0-1.406.126-2.049.348a2.884 2.884 0 011.546 2.547 2.895 2.895 0 01-2.895 2.895c-1.109 0-2.06-.63-2.547-1.546a6.264 6.264 0 00-.348 2.049 6.293 6.293 0 106.293-6.293zM152.098 146.572c-.718 0-1.406.126-2.049.348a2.884 2.884 0 011.546 2.547 2.895 2.895 0 01-2.895 2.895c-1.109 0-2.06-.63-2.547-1.546a6.264 6.264 0 00-.348 2.049 6.293 6.293 0 106.293-6.293zM37.345 136.298l-.15-.423c-.081-.275-.236-.679-.362-1.191l-.227-.849c-.058-.323-.088-.676-.134-1.06-.086-.77-.157-1.672-.079-2.601.022-.474.064-.967.107-1.483.084-.504.198-1.021.305-1.561.187-1.093.638-2.162 1.05-3.305.534-1.075 1.052-2.235 1.815-3.259.673-1.093 1.577-2.032 2.438-3.005.973-.861 1.91-1.769 3.003-2.442 1.02-.769 2.185-1.28 3.258-1.819 1.143-.411 2.212-.864 3.305-1.051.541-.107 1.059-.219 1.562-.305a43.677 43.677 0 011.484-.106c.94-.079 1.811-.001 2.569.085.379.047.728.076 1.051.134l.883.225c.527.127.933.282 1.206.364l.417.152-.411.193c-.267.109-.652.305-1.133.482l-.786.313c-.279.15-.58.278-.895.431-.633.29-1.336.578-2.058.994l-1.128.57-1.15.688c-.806.405-1.55 1.025-2.375 1.506-.756.612-1.582 1.141-2.325 1.814-.786.613-1.492 1.335-2.236 2.013-.678.743-1.404 1.446-2.017 2.233-.677.74-1.2 1.57-1.817 2.324-.481.825-1.102 1.569-1.507 2.375-.234.39-.451.778-.687 1.15l-.57 1.129c-.417.733-.699 1.405-.988 2.026-.152.31-.282.607-.431.886l-.314.82c-.178.496-.372.883-.481 1.148l-.192.405zM134.892 136.298l-.15-.423c-.081-.275-.236-.679-.362-1.191l-.227-.849c-.058-.323-.088-.676-.134-1.06-.085-.77-.157-1.672-.079-2.601.022-.474.064-.967.107-1.483.084-.504.198-1.021.305-1.561.187-1.093.638-2.162 1.05-3.305.534-1.075 1.052-2.235 1.815-3.259.673-1.093 1.577-2.032 2.438-3.005.973-.861 1.91-1.769 3.003-2.442 1.02-.769 2.185-1.28 3.258-1.819 1.143-.411 2.212-.864 3.305-1.051.541-.107 1.059-.219 1.562-.305a43.861 43.861 0 011.484-.106c.94-.079 1.811-.001 2.569.085.379.047.728.076 1.051.134l.883.225c.527.127.933.282 1.207.364l.417.152-.411.193c-.267.109-.652.305-1.133.482l-.786.313c-.279.15-.58.278-.895.431-.633.29-1.336.578-2.058.994l-1.128.57-1.15.688c-.806.405-1.55 1.025-2.375 1.506-.756.612-1.582 1.141-2.325 1.814-.786.613-1.492 1.335-2.236 2.013-.678.743-1.404 1.446-2.017 2.233-.677.74-1.2 1.57-1.817 2.324-.481.825-1.102 1.569-1.507 2.375-.234.39-.451.778-.688 1.15l-.57 1.129c-.417.733-.699 1.405-.988 2.026-.152.31-.282.607-.431.886l-.314.82c-.177.496-.372.883-.481 1.148l-.192.405zM127.517 173.639c-.016.036-.023.075-.04.111l-.649 1.568c-1 2.017-2.132 3.96-3.532 5.648-1.415 1.655-2.905 3.227-4.57 4.434-.78.69-1.667 1.158-2.474 1.731-.834.518-1.691.941-2.508 1.389-.847.358-1.657.764-2.462 1.057-.81.269-1.584.573-2.333.785-.751.195-1.466.363-2.135.557-.66.133-1.275.229-1.844.331-1.126.232-2.109.24-2.735.323l-.983.111.927.345 1.116.391c.221.074.453.167.71.241l.848.175c.602.119 1.284.269 2.035.396.739.084 1.545.131 2.42.197.874.051 1.795-.045 2.79-.071.99-.055 2.006-.282 3.099-.438a38.838 38.838 0 003.308-.925c1.105-.438 2.288-.851 3.403-1.478 2.31-1.124 4.516-2.767 6.586-4.706l1.497-1.545c.49-.532.908-1.132 1.369-1.706l.677-.878.601-.938c.386-.637.801-1.266 1.147-1.934.139-.288.281-.577.422-.866l-6.69-4.305z"
      ></path>
      <defs>
        <linearGradient
          id="paint0_linear_613_29"
          x1="56.224"
          x2="174.212"
          y1="25.625"
          y2="143.613"
          gradientUnits="userSpaceOnUse"
        >
          <stop stopColor="#F2D2B8"></stop>
          <stop offset="1" stopColor="#F6913F"></stop>
        </linearGradient>
        <linearGradient
          id="paint1_linear_613_29"
          x1="36.743"
          x2="84.946"
          y1="112.197"
          y2="160.4"
          gradientUnits="userSpaceOnUse"
        >
          <stop stopColor="#fff"></stop>
          <stop offset="1" stopColor="#B0BEC5"></stop>
        </linearGradient>
        <linearGradient
          id="paint2_linear_613_29"
          x1="135.054"
          x2="183.257"
          y1="112.197"
          y2="160.4"
          gradientUnits="userSpaceOnUse"
        >
          <stop stopColor="#fff"></stop>
          <stop offset="1" stopColor="#B0BEC5"></stop>
        </linearGradient>
      </defs>
    </svg>