<svg
    xmlns="http://www.w3.org/2000/svg"
    width="242"
    height="241"
    fill="none"
    viewBox="0 0 242 241"
>
    <path
        fill="currentColor"
        d="M215.289 117.48a2.217 2.217 0 011.727.548c.491.435.772 1.032.841 1.791.071.768-.097 1.401-.502 1.899-.405.508-.938.792-1.599.853a2.202 2.202 0 01-1.713-.549c-.489-.416-.769-1.009-.839-1.777-.07-.758.097-1.396.501-1.914a2.205 2.205 0 011.584-.851zM228.696 153.822l-1.445 3.681-16.068-.799 12.327 10.331-1.446 3.681-17.123-14.747 1.172-2.986 22.583.839zm.835-2.127l-1.472 3.749-14.986-5.079-5.14-2.018 1.745-4.445 19.853 7.793zm-6.83 17.399l-1.477 3.763-19.853-7.793 1.75-4.459 5.141 2.018 14.439 6.471zM215.265 182.005l-10.178-1.983 5.401 8.867-2.941 4.236-7.24-13.46-6.33-4.394 2.765-3.983 6.33 4.393 15.15 2.065-2.957 4.259zM167.217 207.934l4.708-2.564 1.773 3.255-4.709 2.564c-.695.378-1.189.798-1.483 1.258-.303.465-.443.953-.421 1.463a3.49 3.49 0 00.448 1.558c.289.532.661.969 1.114 1.311.45.356.966.559 1.549.608.574.054 1.209-.108 1.903-.486l3.191-1.737-8.427-15.477 4.194-2.283 10.199 18.731-7.384 4.021c-1.493.813-2.918 1.238-4.276 1.277-1.366.043-2.589-.253-3.669-.888-1.083-.622-1.954-1.537-2.613-2.747-.658-1.209-.943-2.416-.854-3.621.08-1.2.521-2.341 1.322-3.422.798-1.068 1.942-2.008 3.435-2.821zM157.503 227.674l-7.901 2.151c-1.573.429-2.999.564-4.277.406-1.287-.155-2.368-.61-3.241-1.364-.873-.754-1.495-1.809-1.864-3.166-.308-1.131-.386-2.142-.234-3.034a5.423 5.423 0 011.019-2.388c.519-.698 1.177-1.327 1.976-1.889l1.275-1.228 6.727-1.832 1.002 3.568-5.003 1.363c-.688.187-1.225.465-1.61.833a2.479 2.479 0 00-.737 1.309c-.112.516-.086 1.076.078 1.679.169.622.433 1.127.792 1.515.359.388.801.637 1.327.747.519.122 1.118.09 1.796-.094l3.293-.897-4.63-17.003 4.607-1.255 5.605 20.579zm-16.996-17.476l7.112 7.885-4.858 1.339-7.129-7.669-.058-.212 4.933-1.343zM113.806 223.813l-.032-.951c-.054-1.62.122-3.082.529-4.385.396-1.303.989-2.422 1.779-3.357a8.244 8.244 0 012.829-2.19c1.097-.515 2.324-.795 3.68-.84 1.357-.045 2.605.152 3.743.593a8.536 8.536 0 012.997 1.997c.85.88 1.521 1.957 2.013 3.231.492 1.273.765 2.72.818 4.34l.032.952c.054 1.62-.122 3.082-.529 4.385-.406 1.313-.998 2.437-1.778 3.371a8.226 8.226 0 01-2.845 2.176c-1.106.525-2.338.811-3.694.856-1.357.045-2.605-.158-3.743-.609a8.092 8.092 0 01-2.968-1.983c-.85-.88-1.521-1.962-2.013-3.245-.492-1.274-.765-2.72-.818-4.341zm4.785-1.111l.032.981c.036 1.083.166 2.036.388 2.859.223.833.53 1.527.92 2.081.389.553.862.963 1.418 1.228.556.274 1.181.4 1.874.377.722-.024 1.347-.191 1.874-.502.527-.301.967-.74 1.319-1.319.343-.578.597-1.29.765-2.136.158-.836.219-1.795.183-2.878l-.033-.981c-.036-1.074-.16-2.027-.373-2.861-.223-.823-.53-1.516-.92-2.08-.39-.563-.858-.982-1.404-1.257-.557-.275-1.196-.4-1.918-.376-.693.023-1.303.189-1.83.5-.537.311-.981.76-1.333 1.349-.352.588-.607 1.3-.765 2.136-.167.845-.233 1.805-.197 2.879zM98.145 216.6l-2.915 14.416-4.652-.941 2.915-14.415c.283-1.398.843-2.54 1.68-3.427a6.505 6.505 0 013.014-1.826c1.173-.331 2.429-.361 3.769-.09 1.379.279 2.558.756 3.537 1.433a5.692 5.692 0 012.094 2.65c.408 1.089.46 2.379.158 3.873l-4.68-.947c.149-.737.176-1.339.081-1.807-.106-.459-.324-.812-.653-1.058-.328-.246-.751-.421-1.268-.526-.498-.1-.953-.068-1.365.098-.414.175-.769.477-1.065.905-.298.438-.514.992-.65 1.662zM72.408 203.815l1.546-3.352 10.309 4.756-1.547 3.352-10.308-4.756zm1.444 20.089l8.934-19.366 4.337 2-8.935 19.367-4.336-2.001zm-3.906-11.255l1.497-3.246 8.978 4.142-1.497 3.246-8.978-4.142zm-4.94 7.175l1.553-3.366 10.322 4.762-1.553 3.365-10.321-4.761zM55.59 195.855l-3.735-2.928c.965-1.105 2.079-1.876 3.34-2.314 1.248-.436 2.568-.512 3.958-.228 1.385.291 2.765.976 4.14 2.055 1.1.861 1.936 1.821 2.51 2.878a7.765 7.765 0 01.947 3.35c.045 1.177-.16 2.387-.614 3.632-.468 1.246-1.194 2.495-2.176 3.748l-.804 1.026c-.982 1.253-2.03 2.249-3.144 2.989-1.114.74-2.255 1.222-3.425 1.447a7.842 7.842 0 01-3.487-.11c-1.156-.298-2.264-.863-3.325-1.694-1.43-1.121-2.434-2.325-3.014-3.611-.58-1.286-.787-2.59-.62-3.91.16-1.327.638-2.609 1.434-3.847l3.746 2.938c-.481.677-.789 1.323-.923 1.938a2.765 2.765 0 00.187 1.803c.265.58.766 1.159 1.504 1.737.538.422 1.089.693 1.653.812.556.114 1.134.065 1.735-.147.592-.218 1.21-.602 1.853-1.153.637-.543 1.305-1.26 2.004-2.152l.822-1.049c.693-.883 1.235-1.693 1.626-2.429.39-.736.625-1.415.703-2.036a3.194 3.194 0 00-.262-1.732c-.245-.527-.659-1.019-1.243-1.477-.668-.524-1.307-.858-1.915-1a2.898 2.898 0 00-1.786.164c-.575.244-1.139.677-1.69 1.3zM29.71 188.88l16.675-13.297 2.968 3.722-16.675 13.297-2.968-3.722zm-4.046-5.074l2.897-2.31 10.978 13.766-2.898 2.311-10.977-13.767zM30.049 158.416a2.71 2.71 0 00-.806.558c-.22.222-.38.513-.48.873-.1.361-.15.827-.15 1.399-.009.577.047 1.301.166 2.173.125.999.197 1.975.214 2.927.004.949-.089 1.84-.278 2.674a6.093 6.093 0 01-.99 2.231c-.473.645-1.134 1.167-1.982 1.566-.821.387-1.649.556-2.482.506a5.596 5.596 0 01-2.414-.724c-.785-.429-1.51-1.027-2.173-1.794-.673-.762-1.259-1.674-1.758-2.734-.667-1.413-1-2.773-1-4.079-.013-1.311.289-2.479.907-3.505.609-1.021 1.505-1.81 2.69-2.368l2.022 4.293c-.52.246-.928.573-1.221.981-.307.403-.47.88-.492 1.43-.026.541.115 1.138.423 1.792.3.636.65 1.125 1.047 1.466.386.337.794.538 1.225.605.427.058.834-.005 1.223-.188.31-.145.554-.358.736-.638a3.15 3.15 0 00.365-1.046 7.85 7.85 0 00.06-1.454 16.921 16.921 0 00-.187-1.839 20.858 20.858 0 01-.206-3.255c.018-.991.15-1.879.396-2.664a5.526 5.526 0 011.128-2.038c.503-.582 1.157-1.063 1.96-1.442.857-.404 1.696-.594 2.517-.571a5.198 5.198 0 012.37.632c.751.402 1.45.98 2.096 1.733.647.753 1.222 1.664 1.726 2.733.458.972.786 1.988.984 3.05a9.403 9.403 0 01.045 3.12 6.601 6.601 0 01-1.125 2.766c-.6.833-1.457 1.512-2.57 2.037l-2.036-4.32c.583-.274 1.038-.592 1.365-.951a2.67 2.67 0 00.63-1.171 3.264 3.264 0 00-.013-1.403 7.298 7.298 0 00-.553-1.585c-.304-.645-.638-1.125-1.002-1.439-.377-.319-.77-.501-1.18-.545a2.2 2.2 0 00-1.197.208zM25.87 120.242c-.664-.017-1.215-.265-1.652-.745-.438-.489-.647-1.115-.628-1.876.02-.772.26-1.381.72-1.829a2.22 2.22 0 011.687-.661c.654.016 1.2.264 1.637.744.438.47.647 1.091.628 1.862-.02.762-.26 1.376-.72 1.843a2.203 2.203 0 01-1.673.662zM16.042 74.623l1.863-3.49 15.867 2.66-11.044-11.692 1.863-3.489 15.295 16.636-1.51 2.83-22.334-3.455zm-1.076 2.015l1.897-3.553 14.295 6.785 4.872 2.601-2.25 4.213-18.814-10.046zM23.77 60.15l1.904-3.566 18.814 10.045-2.256 4.225-4.871-2.6L23.77 60.15zM32.655 48.19l9.88 3.15-4.335-9.433 3.412-3.865 5.628 14.21 5.777 5.098-3.208 3.635-5.777-5.099-14.808-3.809 3.431-3.887zM83.389 28.015l-4.974 2-1.383-3.439 4.975-2c.733-.294 1.273-.654 1.619-1.077.355-.426.55-.895.588-1.404a3.49 3.49 0 00-.264-1.6 4.036 4.036 0 00-.955-1.431 2.826 2.826 0 00-1.467-.784c-.565-.12-1.214-.033-1.948.262l-3.37 1.355 6.573 16.35-4.43 1.782-7.956-19.79 7.801-3.135c1.577-.634 3.042-.892 4.395-.772 1.362.115 2.542.55 3.54 1.307 1.005.744 1.764 1.754 2.277 3.032.514 1.277.657 2.51.428 3.696-.219 1.182-.789 2.264-1.71 3.245-.916.968-2.162 1.77-3.739 2.403zM95.328 9.534l8.097-1.22c1.612-.243 3.044-.211 4.295.094 1.26.304 2.281.881 3.06 1.731.78.85 1.275 1.971 1.485 3.362.174 1.158.134 2.172-.12 3.04a5.41 5.41 0 01-1.29 2.253c-.596.633-1.323 1.182-2.181 1.647l-1.409 1.072-6.895 1.038-.581-3.66 5.128-.772c.704-.107 1.27-.32 1.695-.641.426-.321.721-.726.884-1.215.172-.5.211-1.059.118-1.677-.096-.637-.3-1.17-.611-1.596a2.443 2.443 0 00-1.231-.896c-.502-.181-1.1-.22-1.795-.115l-3.375.509 2.625 17.425-4.722.712-3.177-21.09zm14.852 19.331l-6.149-8.658 4.981-.765 6.19 8.445.033.217-5.055.762zM138.282 18.444l-.079.949c-.135 1.616-.48 3.047-1.034 4.294-.545 1.248-1.264 2.29-2.157 3.128a8.257 8.257 0 01-3.065 1.846c-1.149.385-2.4.52-3.753.408-1.352-.113-2.568-.455-3.648-1.025a8.538 8.538 0 01-2.745-2.33c-.742-.974-1.284-2.121-1.624-3.443-.341-1.322-.444-2.79-.309-4.406l.079-.95c.135-1.615.479-3.046 1.034-4.293.556-1.258 1.275-2.305 2.158-3.143a8.232 8.232 0 013.078-1.83c1.16-.394 2.416-.534 3.769-.421 1.352.113 2.568.459 3.647 1.039a8.091 8.091 0 012.717 2.314c.742.973 1.283 2.125 1.623 3.457.34 1.322.443 2.79.309 4.406zm-4.882.549l.082-.978c.09-1.08.072-2.043-.054-2.886-.125-.853-.349-1.577-.671-2.173-.323-.595-.745-1.056-1.267-1.384-.52-.337-1.126-.535-1.817-.592-.72-.06-1.36.033-1.92.28-.559.238-1.046.624-1.463 1.157-.407.535-.743 1.212-1.008 2.033-.253.812-.425 1.758-.515 2.838l-.082.978c-.089 1.07-.076 2.032.039 2.884.126.844.349 1.568.671 2.173.322.605.739 1.076 1.25 1.412.52.338 1.141.537 1.861.597.691.057 1.316-.038 1.876-.285.569-.247 1.063-.642 1.48-1.185.418-.543.754-1.22 1.008-2.032.264-.821.441-1.767.53-2.837zM152.999 27.425l4.569-13.98 4.511 1.475-4.568 13.98c-.443 1.355-1.132 2.424-2.066 3.208a6.51 6.51 0 01-3.206 1.464c-1.204.192-2.455.076-3.755-.348-1.336-.437-2.452-1.048-3.346-1.834-.891-.794-1.481-1.753-1.772-2.875-.278-1.129-.181-2.417.292-3.865l4.539 1.483c-.233.715-.33 1.31-.29 1.785.052.47.227.845.525 1.128.298.282.698.505 1.199.669.483.158.939.178 1.367.061.432-.126.819-.384 1.163-.776.347-.4.626-.925.838-1.575zM177.079 43.113l-1.925 3.15-9.687-5.92 1.925-3.15 9.687 5.92zm.898-20.12L166.854 41.19l-4.074-2.49 11.122-18.199 4.075 2.49zm2.573 11.632l-1.864 3.05-8.437-5.156 1.864-3.05 8.437 5.156zm5.738-6.553l-1.932 3.163-9.7-5.928 1.933-3.162 9.699 5.927zM192.859 52.97l3.369 3.343c-1.087.984-2.282 1.621-3.586 1.91-1.29.288-2.61.21-3.958-.233-1.341-.45-2.633-1.29-3.874-2.522-.991-.983-1.71-2.033-2.157-3.15a7.77 7.77 0 01-.553-3.436c.092-1.175.436-2.354 1.032-3.537.61-1.183 1.475-2.34 2.596-3.47l.918-.926c1.121-1.13 2.278-1.998 3.47-2.603 1.192-.606 2.382-.953 3.569-1.04a7.847 7.847 0 013.451.514c1.114.43 2.149 1.12 3.106 2.069 1.29 1.279 2.148 2.59 2.575 3.936.426 1.344.48 2.663.161 3.956-.312 1.3-.936 2.517-1.87 3.654l-3.38-3.353c.556-.617.937-1.223 1.142-1.817a2.768 2.768 0 00.023-1.813c-.195-.607-.626-1.24-1.292-1.9-.485-.482-1.001-.815-1.547-1-.54-.176-1.12-.195-1.741-.054-.614.148-1.272.457-1.974.93-.696.465-1.442 1.1-2.24 1.905l-.939.946c-.791.797-1.423 1.539-1.897 2.224-.473.686-.785 1.333-.934 1.941a3.187 3.187 0 00.059 1.75c.182.552.536 1.09 1.063 1.612.603.598 1.199 1.003 1.787 1.215.594.205 1.192.22 1.792.044.6-.175 1.209-.54 1.829-1.095zM217.753 62.903l-18.106 11.27-2.516-4.041 18.106-11.271 2.516 4.042zm3.43 5.509l-3.147 1.958-9.305-14.948 3.147-1.958 9.305 14.948zM213.88 93.121c.342-.115.631-.268.865-.46.244-.195.436-.466.577-.812.141-.347.245-.804.312-1.372.076-.572.105-1.297.088-2.178a27.515 27.515 0 01.127-2.932c.106-.942.302-1.817.587-2.623a6.088 6.088 0 011.241-2.102c.545-.584 1.262-1.026 2.151-1.325.861-.289 1.702-.36 2.524-.214.822.146 1.593.48 2.314 1 .73.517 1.38 1.195 1.95 2.033.58.836 1.056 1.81 1.429 2.92.498 1.481.671 2.87.519 4.168-.139 1.303-.575 2.428-1.307 3.375-.724.944-1.706 1.624-2.946 2.04l-1.512-4.498c.546-.184.989-.461 1.328-.833.351-.365.569-.82.654-1.363.089-.535.018-1.144-.212-1.83-.224-.666-.514-1.192-.87-1.577-.344-.379-.726-.627-1.146-.743a2.137 2.137 0 00-1.237.044 1.746 1.746 0 00-.805.549c-.2.263-.361.595-.484.997a7.87 7.87 0 00-.228 1.436c-.042.55-.051 1.166-.028 1.849.021 1.198-.036 2.284-.173 3.257-.134.982-.368 1.849-.703 2.6a5.524 5.524 0 01-1.357 1.893c-.567.52-1.272.922-2.114 1.205-.898.302-1.754.393-2.566.275a5.186 5.186 0 01-2.281-.903c-.699-.486-1.326-1.141-1.881-1.965-.555-.823-1.02-1.794-1.396-2.914a12.53 12.53 0 01-.624-3.144 9.428 9.428 0 01.317-3.105 6.605 6.605 0 011.44-2.616c.693-.758 1.622-1.333 2.789-1.725l1.52 4.527c-.611.205-1.099.467-1.466.786-.358.316-.612.68-.762 1.09-.147.421-.197.886-.15 1.395.048.51.17 1.056.366 1.64.227.675.503 1.19.828 1.545.337.36.707.586 1.108.678.402.092.807.07 1.214-.068z"
    ></path>
</svg>