<svg width="102" height="119" viewBox="0 0 102 119" fill="none" xmlns="http://www.w3.org/2000/svg">
<path fill-rule="evenodd" clip-rule="evenodd" d="M102 3.97803C102 5.63488 100.657 6.97803 99 6.97803C97.3431 6.97803 96 5.63488 96 3.97803C96 2.32117 97.3431 0.978027 99 0.978027C100.657 0.978027 102 2.32117 102 3.97803ZM99 22.978C100.657 22.978 102 21.6349 102 19.978C102 18.3212 100.657 16.978 99 16.978C97.3431 16.978 96 18.3212 96 19.978C96 21.6349 97.3431 22.978 99 22.978ZM102 35.978C102 37.6349 100.657 38.978 99 38.978C97.3431 38.978 96 37.6349 96 35.978C96 34.3212 97.3431 32.978 99 32.978C100.657 32.978 102 34.3212 102 35.978ZM99 54.978C100.657 54.978 102 53.6349 102 51.978C102 50.3212 100.657 48.978 99 48.978C97.3431 48.978 96 50.3212 96 51.978C96 53.6349 97.3431 54.978 99 54.978ZM102 67.978C102 69.6349 100.657 70.978 99 70.978C97.3431 70.978 96 69.6349 96 67.978C96 66.3212 97.3431 64.978 99 64.978C100.657 64.978 102 66.3212 102 67.978ZM99 86.978C100.657 86.978 102 85.6349 102 83.978C102 82.3212 100.657 80.978 99 80.978C97.3431 80.978 96 82.3212 96 83.978C96 85.6349 97.3431 86.978 99 86.978ZM102 99.978C102 101.635 100.657 102.978 99 102.978C97.3431 102.978 96 101.635 96 99.978C96 98.3212 97.3431 96.978 99 96.978C100.657 96.978 102 98.3212 102 99.978ZM3 118.978C4.65685 118.978 6 117.635 6 115.978C6 114.321 4.65685 112.978 3 112.978C1.34315 112.978 0 114.321 0 115.978C0 117.635 1.34315 118.978 3 118.978ZM22 115.978C22 117.635 20.6569 118.978 19 118.978C17.3431 118.978 16 117.635 16 115.978C16 114.321 17.3431 112.978 19 112.978C20.6569 112.978 22 114.321 22 115.978ZM35 118.978C36.6569 118.978 38 117.635 38 115.978C38 114.321 36.6569 112.978 35 112.978C33.3431 112.978 32 114.321 32 115.978C32 117.635 33.3431 118.978 35 118.978ZM54 115.978C54 117.635 52.6569 118.978 51 118.978C49.3431 118.978 48 117.635 48 115.978C48 114.321 49.3431 112.978 51 112.978C52.6569 112.978 54 114.321 54 115.978ZM67 118.978C68.6569 118.978 70 117.635 70 115.978C70 114.321 68.6569 112.978 67 112.978C65.3431 112.978 64 114.321 64 115.978C64 117.635 65.3431 118.978 67 118.978ZM86 115.978C86 117.635 84.6569 118.978 83 118.978C81.3431 118.978 80 117.635 80 115.978C80 114.321 81.3431 112.978 83 112.978C84.6569 112.978 86 114.321 86 115.978ZM102 115.978C102 117.635 100.657 118.978 99 118.978C97.3431 118.978 96 117.635 96 115.978C96 114.321 97.3431 112.978 99 112.978C100.657 112.978 102 114.321 102 115.978ZM83 102.978C84.6569 102.978 86 101.635 86 99.978C86 98.3212 84.6569 96.978 83 96.978C81.3431 96.978 80 98.3212 80 99.978C80 101.635 81.3431 102.978 83 102.978ZM70 99.978C70 101.635 68.6569 102.978 67 102.978C65.3431 102.978 64 101.635 64 99.978C64 98.3212 65.3431 96.978 67 96.978C68.6569 96.978 70 98.3212 70 99.978ZM51 102.978C52.6569 102.978 54 101.635 54 99.978C54 98.3212 52.6569 96.978 51 96.978C49.3431 96.978 48 98.3212 48 99.978C48 101.635 49.3431 102.978 51 102.978ZM38 99.978C38 101.635 36.6569 102.978 35 102.978C33.3431 102.978 32 101.635 32 99.978C32 98.3212 33.3431 96.978 35 96.978C36.6569 96.978 38 98.3212 38 99.978ZM19 102.978C20.6569 102.978 22 101.635 22 99.978C22 98.3212 20.6569 96.978 19 96.978C17.3431 96.978 16 98.3212 16 99.978C16 101.635 17.3431 102.978 19 102.978ZM6 99.978C6 101.635 4.65685 102.978 3 102.978C1.34315 102.978 0 101.635 0 99.978C0 98.3212 1.34315 96.978 3 96.978C4.65685 96.978 6 98.3212 6 99.978ZM86 83.978C86 85.6349 84.6569 86.978 83 86.978C81.3431 86.978 80 85.6349 80 83.978C80 82.3212 81.3431 80.978 83 80.978C84.6569 80.978 86 82.3212 86 83.978ZM67 86.978C68.6569 86.978 70 85.6349 70 83.978C70 82.3212 68.6569 80.978 67 80.978C65.3431 80.978 64 82.3212 64 83.978C64 85.6349 65.3431 86.978 67 86.978ZM54 83.978C54 85.6349 52.6569 86.978 51 86.978C49.3431 86.978 48 85.6349 48 83.978C48 82.3212 49.3431 80.978 51 80.978C52.6569 80.978 54 82.3212 54 83.978ZM35 86.978C36.6569 86.978 38 85.6349 38 83.978C38 82.3212 36.6569 80.978 35 80.978C33.3431 80.978 32 82.3212 32 83.978C32 85.6349 33.3431 86.978 35 86.978ZM22 83.978C22 85.6349 20.6569 86.978 19 86.978C17.3431 86.978 16 85.6349 16 83.978C16 82.3212 17.3431 80.978 19 80.978C20.6569 80.978 22 82.3212 22 83.978ZM3 86.978C4.65685 86.978 6 85.6349 6 83.978C6 82.3212 4.65685 80.978 3 80.978C1.34315 80.978 0 82.3212 0 83.978C0 85.6349 1.34315 86.978 3 86.978ZM83 70.978C84.6569 70.978 86 69.6349 86 67.978C86 66.3212 84.6569 64.978 83 64.978C81.3431 64.978 80 66.3212 80 67.978C80 69.6349 81.3431 70.978 83 70.978ZM70 67.978C70 69.6349 68.6569 70.978 67 70.978C65.3431 70.978 64 69.6349 64 67.978C64 66.3212 65.3431 64.978 67 64.978C68.6569 64.978 70 66.3212 70 67.978ZM51 70.978C52.6569 70.978 54 69.6349 54 67.978C54 66.3212 52.6569 64.978 51 64.978C49.3431 64.978 48 66.3212 48 67.978C48 69.6349 49.3431 70.978 51 70.978ZM38 67.978C38 69.6349 36.6569 70.978 35 70.978C33.3431 70.978 32 69.6349 32 67.978C32 66.3212 33.3431 64.978 35 64.978C36.6569 64.978 38 66.3212 38 67.978ZM19 70.978C20.6569 70.978 22 69.6349 22 67.978C22 66.3212 20.6569 64.978 19 64.978C17.3431 64.978 16 66.3212 16 67.978C16 69.6349 17.3431 70.978 19 70.978ZM6 67.978C6 69.6349 4.65685 70.978 3 70.978C1.34315 70.978 0 69.6349 0 67.978C0 66.3212 1.34315 64.978 3 64.978C4.65685 64.978 6 66.3212 6 67.978ZM86 51.978C86 53.6349 84.6569 54.978 83 54.978C81.3431 54.978 80 53.6349 80 51.978C80 50.3212 81.3431 48.978 83 48.978C84.6569 48.978 86 50.3212 86 51.978ZM67 54.978C68.6569 54.978 70 53.6349 70 51.978C70 50.3212 68.6569 48.978 67 48.978C65.3431 48.978 64 50.3212 64 51.978C64 53.6349 65.3431 54.978 67 54.978ZM54 51.978C54 53.6349 52.6569 54.978 51 54.978C49.3431 54.978 48 53.6349 48 51.978C48 50.3212 49.3431 48.978 51 48.978C52.6569 48.978 54 50.3212 54 51.978ZM35 54.978C36.6569 54.978 38 53.6349 38 51.978C38 50.3212 36.6569 48.978 35 48.978C33.3431 48.978 32 50.3212 32 51.978C32 53.6349 33.3431 54.978 35 54.978ZM22 51.978C22 53.6349 20.6569 54.978 19 54.978C17.3431 54.978 16 53.6349 16 51.978C16 50.3212 17.3431 48.978 19 48.978C20.6569 48.978 22 50.3212 22 51.978ZM3 54.978C4.65685 54.978 6 53.6349 6 51.978C6 50.3212 4.65685 48.978 3 48.978C1.34315 48.978 0 50.3212 0 51.978C0 53.6349 1.34315 54.978 3 54.978ZM83 38.978C84.6569 38.978 86 37.6349 86 35.978C86 34.3212 84.6569 32.978 83 32.978C81.3431 32.978 80 34.3212 80 35.978C80 37.6349 81.3431 38.978 83 38.978ZM70 35.978C70 37.6349 68.6569 38.978 67 38.978C65.3431 38.978 64 37.6349 64 35.978C64 34.3212 65.3431 32.978 67 32.978C68.6569 32.978 70 34.3212 70 35.978ZM51 38.978C52.6569 38.978 54 37.6349 54 35.978C54 34.3212 52.6569 32.978 51 32.978C49.3431 32.978 48 34.3212 48 35.978C48 37.6349 49.3431 38.978 51 38.978ZM38 35.978C38 37.6349 36.6569 38.978 35 38.978C33.3431 38.978 32 37.6349 32 35.978C32 34.3212 33.3431 32.978 35 32.978C36.6569 32.978 38 34.3212 38 35.978ZM19 38.978C20.6569 38.978 22 37.6349 22 35.978C22 34.3212 20.6569 32.978 19 32.978C17.3431 32.978 16 34.3212 16 35.978C16 37.6349 17.3431 38.978 19 38.978ZM6 35.978C6 37.6349 4.65685 38.978 3 38.978C1.34315 38.978 0 37.6349 0 35.978C0 34.3212 1.34315 32.978 3 32.978C4.65685 32.978 6 34.3212 6 35.978ZM86 19.978C86 21.6349 84.6569 22.978 83 22.978C81.3431 22.978 80 21.6349 80 19.978C80 18.3212 81.3431 16.978 83 16.978C84.6569 16.978 86 18.3212 86 19.978ZM67 22.978C68.6569 22.978 70 21.6349 70 19.978C70 18.3212 68.6569 16.978 67 16.978C65.3431 16.978 64 18.3212 64 19.978C64 21.6349 65.3431 22.978 67 22.978ZM54 19.978C54 21.6349 52.6569 22.978 51 22.978C49.3431 22.978 48 21.6349 48 19.978C48 18.3212 49.3431 16.978 51 16.978C52.6569 16.978 54 18.3212 54 19.978ZM35 22.978C36.6569 22.978 38 21.6349 38 19.978C38 18.3212 36.6569 16.978 35 16.978C33.3431 16.978 32 18.3212 32 19.978C32 21.6349 33.3431 22.978 35 22.978ZM22 19.978C22 21.6349 20.6569 22.978 19 22.978C17.3431 22.978 16 21.6349 16 19.978C16 18.3212 17.3431 16.978 19 16.978C20.6569 16.978 22 18.3212 22 19.978ZM3 22.978C4.65685 22.978 6 21.6349 6 19.978C6 18.3212 4.65685 16.978 3 16.978C1.34315 16.978 0 18.3212 0 19.978C0 21.6349 1.34315 22.978 3 22.978ZM83 6.97803C84.6569 6.97803 86 5.63488 86 3.97803C86 2.32117 84.6569 0.978027 83 0.978027C81.3431 0.978027 80 2.32117 80 3.97803C80 5.63488 81.3431 6.97803 83 6.97803ZM70 3.97803C70 5.63488 68.6569 6.97803 67 6.97803C65.3431 6.97803 64 5.63488 64 3.97803C64 2.32117 65.3431 0.978027 67 0.978027C68.6569 0.978027 70 2.32117 70 3.97803ZM51 6.97803C52.6569 6.97803 54 5.63488 54 3.97803C54 2.32117 52.6569 0.978027 51 0.978027C49.3431 0.978027 48 2.32117 48 3.97803C48 5.63488 49.3431 6.97803 51 6.97803ZM38 3.97803C38 5.63488 36.6569 6.97803 35 6.97803C33.3431 6.97803 32 5.63488 32 3.97803C32 2.32117 33.3431 0.978027 35 0.978027C36.6569 0.978027 38 2.32117 38 3.97803ZM19 6.97803C20.6569 6.97803 22 5.63488 22 3.97803C22 2.32117 20.6569 0.978027 19 0.978027C17.3431 0.978027 16 2.32117 16 3.97803C16 5.63488 17.3431 6.97803 19 6.97803ZM6 3.97803C6 5.63488 4.65685 6.97803 3 6.97803C1.34315 6.97803 0 5.63488 0 3.97803C0 2.32117 1.34315 0.978027 3 0.978027C4.65685 0.978027 6 2.32117 6 3.97803Z" fill="#343541" fill-opacity="0.41"/>
</svg>
