<svg width="102" height="119" viewBox="0 0 102 119" fill="none" xmlns="http://www.w3.org/2000/svg">
<path fill-rule="evenodd" clip-rule="evenodd" d="M102 3.97803C102 5.63488 100.657 6.97803 98.9999 6.97803C97.343 6.97803 95.9999 5.63488 95.9999 3.97803C95.9999 2.32117 97.343 0.978027 98.9999 0.978027C100.657 0.978027 102 2.32117 102 3.97803ZM98.9999 22.978C100.657 22.978 102 21.6349 102 19.978C102 18.3212 100.657 16.978 98.9999 16.978C97.343 16.978 95.9999 18.3212 95.9999 19.978C95.9999 21.6349 97.343 22.978 98.9999 22.978ZM102 35.978C102 37.6349 100.657 38.978 98.9999 38.978C97.343 38.978 95.9999 37.6349 95.9999 35.978C95.9999 34.3212 97.343 32.978 98.9999 32.978C100.657 32.978 102 34.3212 102 35.978ZM98.9999 54.978C100.657 54.978 102 53.6349 102 51.978C102 50.3212 100.657 48.978 98.9999 48.978C97.343 48.978 95.9999 50.3212 95.9999 51.978C95.9999 53.6349 97.343 54.978 98.9999 54.978ZM102 67.978C102 69.6349 100.657 70.978 98.9999 70.978C97.343 70.978 95.9999 69.6349 95.9999 67.978C95.9999 66.3212 97.343 64.978 98.9999 64.978C100.657 64.978 102 66.3212 102 67.978ZM98.9999 86.978C100.657 86.978 102 85.6349 102 83.978C102 82.3212 100.657 80.978 98.9999 80.978C97.343 80.978 95.9999 82.3212 95.9999 83.978C95.9999 85.6349 97.343 86.978 98.9999 86.978ZM102 99.978C102 101.635 100.657 102.978 98.9999 102.978C97.343 102.978 95.9999 101.635 95.9999 99.978C95.9999 98.3212 97.343 96.978 98.9999 96.978C100.657 96.978 102 98.3212 102 99.978ZM2.99988 118.978C4.65673 118.978 5.99988 117.635 5.99988 115.978C5.99988 114.321 4.65673 112.978 2.99988 112.978C1.34302 112.978 -0.00012207 114.321 -0.00012207 115.978C-0.00012207 117.635 1.34302 118.978 2.99988 118.978ZM21.9999 115.978C21.9999 117.635 20.6567 118.978 18.9999 118.978C17.343 118.978 15.9999 117.635 15.9999 115.978C15.9999 114.321 17.343 112.978 18.9999 112.978C20.6567 112.978 21.9999 114.321 21.9999 115.978ZM34.9999 118.978C36.6567 118.978 37.9999 117.635 37.9999 115.978C37.9999 114.321 36.6567 112.978 34.9999 112.978C33.343 112.978 31.9999 114.321 31.9999 115.978C31.9999 117.635 33.343 118.978 34.9999 118.978ZM53.9999 115.978C53.9999 117.635 52.6567 118.978 50.9999 118.978C49.343 118.978 47.9999 117.635 47.9999 115.978C47.9999 114.321 49.343 112.978 50.9999 112.978C52.6567 112.978 53.9999 114.321 53.9999 115.978ZM66.9999 118.978C68.6567 118.978 69.9999 117.635 69.9999 115.978C69.9999 114.321 68.6567 112.978 66.9999 112.978C65.343 112.978 63.9999 114.321 63.9999 115.978C63.9999 117.635 65.343 118.978 66.9999 118.978ZM85.9999 115.978C85.9999 117.635 84.6567 118.978 82.9999 118.978C81.343 118.978 79.9999 117.635 79.9999 115.978C79.9999 114.321 81.343 112.978 82.9999 112.978C84.6567 112.978 85.9999 114.321 85.9999 115.978ZM102 115.978C102 117.635 100.657 118.978 98.9999 118.978C97.343 118.978 95.9999 117.635 95.9999 115.978C95.9999 114.321 97.343 112.978 98.9999 112.978C100.657 112.978 102 114.321 102 115.978ZM82.9999 102.978C84.6567 102.978 85.9999 101.635 85.9999 99.978C85.9999 98.3212 84.6567 96.978 82.9999 96.978C81.343 96.978 79.9999 98.3212 79.9999 99.978C79.9999 101.635 81.343 102.978 82.9999 102.978ZM69.9999 99.978C69.9999 101.635 68.6567 102.978 66.9999 102.978C65.343 102.978 63.9999 101.635 63.9999 99.978C63.9999 98.3212 65.343 96.978 66.9999 96.978C68.6567 96.978 69.9999 98.3212 69.9999 99.978ZM50.9999 102.978C52.6567 102.978 53.9999 101.635 53.9999 99.978C53.9999 98.3212 52.6567 96.978 50.9999 96.978C49.343 96.978 47.9999 98.3212 47.9999 99.978C47.9999 101.635 49.343 102.978 50.9999 102.978ZM37.9999 99.978C37.9999 101.635 36.6567 102.978 34.9999 102.978C33.343 102.978 31.9999 101.635 31.9999 99.978C31.9999 98.3212 33.343 96.978 34.9999 96.978C36.6567 96.978 37.9999 98.3212 37.9999 99.978ZM18.9999 102.978C20.6567 102.978 21.9999 101.635 21.9999 99.978C21.9999 98.3212 20.6567 96.978 18.9999 96.978C17.343 96.978 15.9999 98.3212 15.9999 99.978C15.9999 101.635 17.343 102.978 18.9999 102.978ZM5.99988 99.978C5.99988 101.635 4.65673 102.978 2.99988 102.978C1.34302 102.978 -0.00012207 101.635 -0.00012207 99.978C-0.00012207 98.3212 1.34302 96.978 2.99988 96.978C4.65673 96.978 5.99988 98.3212 5.99988 99.978ZM85.9999 83.978C85.9999 85.6349 84.6567 86.978 82.9999 86.978C81.343 86.978 79.9999 85.6349 79.9999 83.978C79.9999 82.3212 81.343 80.978 82.9999 80.978C84.6567 80.978 85.9999 82.3212 85.9999 83.978ZM66.9999 86.978C68.6567 86.978 69.9999 85.6349 69.9999 83.978C69.9999 82.3212 68.6567 80.978 66.9999 80.978C65.343 80.978 63.9999 82.3212 63.9999 83.978C63.9999 85.6349 65.343 86.978 66.9999 86.978ZM53.9999 83.978C53.9999 85.6349 52.6567 86.978 50.9999 86.978C49.343 86.978 47.9999 85.6349 47.9999 83.978C47.9999 82.3212 49.343 80.978 50.9999 80.978C52.6567 80.978 53.9999 82.3212 53.9999 83.978ZM34.9999 86.978C36.6567 86.978 37.9999 85.6349 37.9999 83.978C37.9999 82.3212 36.6567 80.978 34.9999 80.978C33.343 80.978 31.9999 82.3212 31.9999 83.978C31.9999 85.6349 33.343 86.978 34.9999 86.978ZM21.9999 83.978C21.9999 85.6349 20.6567 86.978 18.9999 86.978C17.343 86.978 15.9999 85.6349 15.9999 83.978C15.9999 82.3212 17.343 80.978 18.9999 80.978C20.6567 80.978 21.9999 82.3212 21.9999 83.978ZM2.99988 86.978C4.65673 86.978 5.99988 85.6349 5.99988 83.978C5.99988 82.3212 4.65673 80.978 2.99988 80.978C1.34302 80.978 -0.00012207 82.3212 -0.00012207 83.978C-0.00012207 85.6349 1.34302 86.978 2.99988 86.978ZM82.9999 70.978C84.6567 70.978 85.9999 69.6349 85.9999 67.978C85.9999 66.3212 84.6567 64.978 82.9999 64.978C81.343 64.978 79.9999 66.3212 79.9999 67.978C79.9999 69.6349 81.343 70.978 82.9999 70.978ZM69.9999 67.978C69.9999 69.6349 68.6567 70.978 66.9999 70.978C65.343 70.978 63.9999 69.6349 63.9999 67.978C63.9999 66.3212 65.343 64.978 66.9999 64.978C68.6567 64.978 69.9999 66.3212 69.9999 67.978ZM50.9999 70.978C52.6567 70.978 53.9999 69.6349 53.9999 67.978C53.9999 66.3212 52.6567 64.978 50.9999 64.978C49.343 64.978 47.9999 66.3212 47.9999 67.978C47.9999 69.6349 49.343 70.978 50.9999 70.978ZM37.9999 67.978C37.9999 69.6349 36.6567 70.978 34.9999 70.978C33.343 70.978 31.9999 69.6349 31.9999 67.978C31.9999 66.3212 33.343 64.978 34.9999 64.978C36.6567 64.978 37.9999 66.3212 37.9999 67.978ZM18.9999 70.978C20.6567 70.978 21.9999 69.6349 21.9999 67.978C21.9999 66.3212 20.6567 64.978 18.9999 64.978C17.343 64.978 15.9999 66.3212 15.9999 67.978C15.9999 69.6349 17.343 70.978 18.9999 70.978ZM5.99988 67.978C5.99988 69.6349 4.65673 70.978 2.99988 70.978C1.34302 70.978 -0.00012207 69.6349 -0.00012207 67.978C-0.00012207 66.3212 1.34302 64.978 2.99988 64.978C4.65673 64.978 5.99988 66.3212 5.99988 67.978ZM85.9999 51.978C85.9999 53.6349 84.6567 54.978 82.9999 54.978C81.343 54.978 79.9999 53.6349 79.9999 51.978C79.9999 50.3212 81.343 48.978 82.9999 48.978C84.6567 48.978 85.9999 50.3212 85.9999 51.978ZM66.9999 54.978C68.6567 54.978 69.9999 53.6349 69.9999 51.978C69.9999 50.3212 68.6567 48.978 66.9999 48.978C65.343 48.978 63.9999 50.3212 63.9999 51.978C63.9999 53.6349 65.343 54.978 66.9999 54.978ZM53.9999 51.978C53.9999 53.6349 52.6567 54.978 50.9999 54.978C49.343 54.978 47.9999 53.6349 47.9999 51.978C47.9999 50.3212 49.343 48.978 50.9999 48.978C52.6567 48.978 53.9999 50.3212 53.9999 51.978ZM34.9999 54.978C36.6567 54.978 37.9999 53.6349 37.9999 51.978C37.9999 50.3212 36.6567 48.978 34.9999 48.978C33.343 48.978 31.9999 50.3212 31.9999 51.978C31.9999 53.6349 33.343 54.978 34.9999 54.978ZM21.9999 51.978C21.9999 53.6349 20.6567 54.978 18.9999 54.978C17.343 54.978 15.9999 53.6349 15.9999 51.978C15.9999 50.3212 17.343 48.978 18.9999 48.978C20.6567 48.978 21.9999 50.3212 21.9999 51.978ZM2.99988 54.978C4.65673 54.978 5.99988 53.6349 5.99988 51.978C5.99988 50.3212 4.65673 48.978 2.99988 48.978C1.34302 48.978 -0.00012207 50.3212 -0.00012207 51.978C-0.00012207 53.6349 1.34302 54.978 2.99988 54.978ZM82.9999 38.978C84.6567 38.978 85.9999 37.6349 85.9999 35.978C85.9999 34.3212 84.6567 32.978 82.9999 32.978C81.343 32.978 79.9999 34.3212 79.9999 35.978C79.9999 37.6349 81.343 38.978 82.9999 38.978ZM69.9999 35.978C69.9999 37.6349 68.6567 38.978 66.9999 38.978C65.343 38.978 63.9999 37.6349 63.9999 35.978C63.9999 34.3212 65.343 32.978 66.9999 32.978C68.6567 32.978 69.9999 34.3212 69.9999 35.978ZM50.9999 38.978C52.6567 38.978 53.9999 37.6349 53.9999 35.978C53.9999 34.3212 52.6567 32.978 50.9999 32.978C49.343 32.978 47.9999 34.3212 47.9999 35.978C47.9999 37.6349 49.343 38.978 50.9999 38.978ZM37.9999 35.978C37.9999 37.6349 36.6567 38.978 34.9999 38.978C33.343 38.978 31.9999 37.6349 31.9999 35.978C31.9999 34.3212 33.343 32.978 34.9999 32.978C36.6567 32.978 37.9999 34.3212 37.9999 35.978ZM18.9999 38.978C20.6567 38.978 21.9999 37.6349 21.9999 35.978C21.9999 34.3212 20.6567 32.978 18.9999 32.978C17.343 32.978 15.9999 34.3212 15.9999 35.978C15.9999 37.6349 17.343 38.978 18.9999 38.978ZM5.99988 35.978C5.99988 37.6349 4.65673 38.978 2.99988 38.978C1.34302 38.978 -0.00012207 37.6349 -0.00012207 35.978C-0.00012207 34.3212 1.34302 32.978 2.99988 32.978C4.65673 32.978 5.99988 34.3212 5.99988 35.978ZM85.9999 19.978C85.9999 21.6349 84.6567 22.978 82.9999 22.978C81.343 22.978 79.9999 21.6349 79.9999 19.978C79.9999 18.3212 81.343 16.978 82.9999 16.978C84.6567 16.978 85.9999 18.3212 85.9999 19.978ZM66.9999 22.978C68.6567 22.978 69.9999 21.6349 69.9999 19.978C69.9999 18.3212 68.6567 16.978 66.9999 16.978C65.343 16.978 63.9999 18.3212 63.9999 19.978C63.9999 21.6349 65.343 22.978 66.9999 22.978ZM53.9999 19.978C53.9999 21.6349 52.6567 22.978 50.9999 22.978C49.343 22.978 47.9999 21.6349 47.9999 19.978C47.9999 18.3212 49.343 16.978 50.9999 16.978C52.6567 16.978 53.9999 18.3212 53.9999 19.978ZM34.9999 22.978C36.6567 22.978 37.9999 21.6349 37.9999 19.978C37.9999 18.3212 36.6567 16.978 34.9999 16.978C33.343 16.978 31.9999 18.3212 31.9999 19.978C31.9999 21.6349 33.343 22.978 34.9999 22.978ZM21.9999 19.978C21.9999 21.6349 20.6567 22.978 18.9999 22.978C17.343 22.978 15.9999 21.6349 15.9999 19.978C15.9999 18.3212 17.343 16.978 18.9999 16.978C20.6567 16.978 21.9999 18.3212 21.9999 19.978ZM2.99988 22.978C4.65673 22.978 5.99988 21.6349 5.99988 19.978C5.99988 18.3212 4.65673 16.978 2.99988 16.978C1.34302 16.978 -0.00012207 18.3212 -0.00012207 19.978C-0.00012207 21.6349 1.34302 22.978 2.99988 22.978ZM82.9999 6.97803C84.6567 6.97803 85.9999 5.63488 85.9999 3.97803C85.9999 2.32117 84.6567 0.978027 82.9999 0.978027C81.343 0.978027 79.9999 2.32117 79.9999 3.97803C79.9999 5.63488 81.343 6.97803 82.9999 6.97803ZM69.9999 3.97803C69.9999 5.63488 68.6567 6.97803 66.9999 6.97803C65.343 6.97803 63.9999 5.63488 63.9999 3.97803C63.9999 2.32117 65.343 0.978027 66.9999 0.978027C68.6567 0.978027 69.9999 2.32117 69.9999 3.97803ZM50.9999 6.97803C52.6567 6.97803 53.9999 5.63488 53.9999 3.97803C53.9999 2.32117 52.6567 0.978027 50.9999 0.978027C49.343 0.978027 47.9999 2.32117 47.9999 3.97803C47.9999 5.63488 49.343 6.97803 50.9999 6.97803ZM37.9999 3.97803C37.9999 5.63488 36.6567 6.97803 34.9999 6.97803C33.343 6.97803 31.9999 5.63488 31.9999 3.97803C31.9999 2.32117 33.343 0.978027 34.9999 0.978027C36.6567 0.978027 37.9999 2.32117 37.9999 3.97803ZM18.9999 6.97803C20.6567 6.97803 21.9999 5.63488 21.9999 3.97803C21.9999 2.32117 20.6567 0.978027 18.9999 0.978027C17.343 0.978027 15.9999 2.32117 15.9999 3.97803C15.9999 5.63488 17.343 6.97803 18.9999 6.97803ZM5.99988 3.97803C5.99988 5.63488 4.65673 6.97803 2.99988 6.97803C1.34302 6.97803 -0.00012207 5.63488 -0.00012207 3.97803C-0.00012207 2.32117 1.34302 0.978027 2.99988 0.978027C4.65673 0.978027 5.99988 2.32117 5.99988 3.97803Z" fill="#343541" fill-opacity="0.41"/>
</svg>
