<svg width="75" height="93" viewBox="0 0 75 93" fill="none" xmlns="http://www.w3.org/2000/svg">
<circle cx="2.19767" cy="2.19767" r="2.19767" fill="#3C8CD5" fill-opacity="0.11"/>
<circle cx="10.9884" cy="2.19767" r="2.19767" fill="#3C8CD5" fill-opacity="0.11"/>
<circle cx="19.779" cy="2.19767" r="2.19767" fill="#3C8CD5" fill-opacity="0.11"/>
<circle cx="28.5697" cy="2.19767" r="2.19767" fill="#3C8CD5" fill-opacity="0.11"/>
<circle cx="37.3605" cy="2.19767" r="2.19767" fill="#3C8CD5" fill-opacity="0.11"/>
<circle cx="46.151" cy="2.19767" r="2.19767" fill="#3C8CD5" fill-opacity="0.11"/>
<circle cx="54.9418" cy="2.19767" r="2.19767" fill="#3C8CD5" fill-opacity="0.11"/>
<circle cx="63.7326" cy="2.19767" r="2.19767" fill="#3C8CD5" fill-opacity="0.11"/>
<circle cx="72.5234" cy="2.19767" r="2.19767" fill="#3C8CD5" fill-opacity="0.11"/>
<circle cx="2.19767" cy="10.9887" r="2.19767" fill="#3C8CD5" fill-opacity="0.11"/>
<circle cx="10.9884" cy="10.9887" r="2.19767" fill="#3C8CD5" fill-opacity="0.11"/>
<circle cx="19.779" cy="10.9887" r="2.19767" fill="#3C8CD5" fill-opacity="0.11"/>
<circle cx="28.5697" cy="10.9887" r="2.19767" fill="#3C8CD5" fill-opacity="0.11"/>
<circle cx="37.3605" cy="10.9887" r="2.19767" fill="#3C8CD5" fill-opacity="0.11"/>
<circle cx="46.151" cy="10.9887" r="2.19767" fill="#3C8CD5" fill-opacity="0.11"/>
<circle cx="54.9418" cy="10.9887" r="2.19767" fill="#3C8CD5" fill-opacity="0.11"/>
<circle cx="63.7326" cy="10.9887" r="2.19767" fill="#3C8CD5" fill-opacity="0.11"/>
<circle cx="72.5234" cy="10.9887" r="2.19767" fill="#3C8CD5" fill-opacity="0.11"/>
<circle cx="2.19767" cy="19.7792" r="2.19767" fill="#3C8CD5" fill-opacity="0.11"/>
<circle cx="10.9884" cy="19.7792" r="2.19767" fill="#3C8CD5" fill-opacity="0.11"/>
<circle cx="19.779" cy="19.7792" r="2.19767" fill="#3C8CD5" fill-opacity="0.11"/>
<circle cx="28.5697" cy="19.7792" r="2.19767" fill="#3C8CD5" fill-opacity="0.11"/>
<circle cx="37.3605" cy="19.7792" r="2.19767" fill="#3C8CD5" fill-opacity="0.11"/>
<circle cx="46.151" cy="19.7792" r="2.19767" fill="#3C8CD5" fill-opacity="0.11"/>
<circle cx="54.9418" cy="19.7792" r="2.19767" fill="#3C8CD5" fill-opacity="0.11"/>
<circle cx="63.7326" cy="19.7792" r="2.19767" fill="#3C8CD5" fill-opacity="0.11"/>
<circle cx="72.5234" cy="19.7792" r="2.19767" fill="#3C8CD5" fill-opacity="0.11"/>
<circle cx="2.19767" cy="28.5697" r="2.19767" fill="#3C8CD5" fill-opacity="0.11"/>
<circle cx="10.9884" cy="28.5697" r="2.19767" fill="#3C8CD5" fill-opacity="0.11"/>
<circle cx="19.779" cy="28.5697" r="2.19767" fill="#3C8CD5" fill-opacity="0.11"/>
<circle cx="28.5697" cy="28.5697" r="2.19767" fill="#3C8CD5" fill-opacity="0.11"/>
<circle cx="37.3605" cy="28.5697" r="2.19767" fill="#3C8CD5" fill-opacity="0.11"/>
<circle cx="46.151" cy="28.5697" r="2.19767" fill="#3C8CD5" fill-opacity="0.11"/>
<circle cx="54.9418" cy="28.5697" r="2.19767" fill="#3C8CD5" fill-opacity="0.11"/>
<circle cx="63.7326" cy="28.5697" r="2.19767" fill="#3C8CD5" fill-opacity="0.11"/>
<circle cx="72.5234" cy="28.5697" r="2.19767" fill="#3C8CD5" fill-opacity="0.11"/>
<circle cx="2.19767" cy="37.3608" r="2.19767" fill="#3C8CD5" fill-opacity="0.11"/>
<circle cx="10.9884" cy="37.3608" r="2.19767" fill="#3C8CD5" fill-opacity="0.11"/>
<circle cx="19.779" cy="37.3608" r="2.19767" fill="#3C8CD5" fill-opacity="0.11"/>
<circle cx="28.5697" cy="37.3608" r="2.19767" fill="#3C8CD5" fill-opacity="0.11"/>
<circle cx="37.3605" cy="37.3608" r="2.19767" fill="#3C8CD5" fill-opacity="0.11"/>
<circle cx="46.151" cy="37.3608" r="2.19767" fill="#3C8CD5" fill-opacity="0.11"/>
<circle cx="54.9418" cy="37.3608" r="2.19767" fill="#3C8CD5" fill-opacity="0.11"/>
<circle cx="63.7326" cy="37.3608" r="2.19767" fill="#3C8CD5" fill-opacity="0.11"/>
<circle cx="72.5234" cy="37.3608" r="2.19767" fill="#3C8CD5" fill-opacity="0.11"/>
<circle cx="2.19767" cy="46.1513" r="2.19767" fill="#3C8CD5" fill-opacity="0.11"/>
<circle cx="10.9884" cy="46.1513" r="2.19767" fill="#3C8CD5" fill-opacity="0.11"/>
<circle cx="19.779" cy="46.1513" r="2.19767" fill="#3C8CD5" fill-opacity="0.11"/>
<circle cx="28.5697" cy="46.1513" r="2.19767" fill="#3C8CD5" fill-opacity="0.11"/>
<circle cx="37.3605" cy="46.1513" r="2.19767" fill="#3C8CD5" fill-opacity="0.11"/>
<circle cx="46.151" cy="46.1513" r="2.19767" fill="#3C8CD5" fill-opacity="0.11"/>
<circle cx="54.9418" cy="46.1513" r="2.19767" fill="#3C8CD5" fill-opacity="0.11"/>
<circle cx="63.7326" cy="46.1513" r="2.19767" fill="#3C8CD5" fill-opacity="0.11"/>
<circle cx="72.5234" cy="46.1513" r="2.19767" fill="#3C8CD5" fill-opacity="0.11"/>
<circle cx="2.19767" cy="54.9423" r="2.19767" fill="#3C8CD5" fill-opacity="0.11"/>
<circle cx="10.9884" cy="54.9423" r="2.19767" fill="#3C8CD5" fill-opacity="0.11"/>
<circle cx="19.779" cy="54.9423" r="2.19767" fill="#3C8CD5" fill-opacity="0.11"/>
<circle cx="28.5697" cy="54.9423" r="2.19767" fill="#3C8CD5" fill-opacity="0.11"/>
<circle cx="37.3605" cy="54.9423" r="2.19767" fill="#3C8CD5" fill-opacity="0.11"/>
<circle cx="46.151" cy="54.9423" r="2.19767" fill="#3C8CD5" fill-opacity="0.11"/>
<circle cx="54.9418" cy="54.9423" r="2.19767" fill="#3C8CD5" fill-opacity="0.11"/>
<circle cx="63.7326" cy="54.9423" r="2.19767" fill="#3C8CD5" fill-opacity="0.11"/>
<circle cx="72.5234" cy="54.9423" r="2.19767" fill="#3C8CD5" fill-opacity="0.11"/>
<circle cx="2.19767" cy="63.7328" r="2.19767" fill="#3C8CD5" fill-opacity="0.11"/>
<circle cx="10.9884" cy="63.7328" r="2.19767" fill="#3C8CD5" fill-opacity="0.11"/>
<circle cx="19.779" cy="63.7328" r="2.19767" fill="#3C8CD5" fill-opacity="0.11"/>
<circle cx="28.5697" cy="63.7328" r="2.19767" fill="#3C8CD5" fill-opacity="0.11"/>
<circle cx="37.3605" cy="63.7328" r="2.19767" fill="#3C8CD5" fill-opacity="0.11"/>
<circle cx="46.151" cy="63.7328" r="2.19767" fill="#3C8CD5" fill-opacity="0.11"/>
<circle cx="54.9418" cy="63.7328" r="2.19767" fill="#3C8CD5" fill-opacity="0.11"/>
<circle cx="63.7326" cy="63.7328" r="2.19767" fill="#3C8CD5" fill-opacity="0.11"/>
<circle cx="72.5234" cy="63.7328" r="2.19767" fill="#3C8CD5" fill-opacity="0.11"/>
<circle cx="2.19767" cy="72.5234" r="2.19767" fill="#3C8CD5" fill-opacity="0.11"/>
<circle cx="10.9884" cy="72.5234" r="2.19767" fill="#3C8CD5" fill-opacity="0.11"/>
<circle cx="19.779" cy="72.5234" r="2.19767" fill="#3C8CD5" fill-opacity="0.11"/>
<circle cx="28.5697" cy="72.5234" r="2.19767" fill="#3C8CD5" fill-opacity="0.11"/>
<circle cx="37.3605" cy="72.5234" r="2.19767" fill="#3C8CD5" fill-opacity="0.11"/>
<circle cx="46.151" cy="72.5234" r="2.19767" fill="#3C8CD5" fill-opacity="0.11"/>
<circle cx="54.9418" cy="72.5234" r="2.19767" fill="#3C8CD5" fill-opacity="0.11"/>
<circle cx="63.7326" cy="72.5234" r="2.19767" fill="#3C8CD5" fill-opacity="0.11"/>
<circle cx="72.5234" cy="72.5234" r="2.19767" fill="#3C8CD5" fill-opacity="0.11"/>
<circle cx="2.19767" cy="81.3144" r="2.19767" fill="#3C8CD5" fill-opacity="0.11"/>
<circle cx="10.9884" cy="81.3144" r="2.19767" fill="#3C8CD5" fill-opacity="0.11"/>
<circle cx="19.779" cy="81.3144" r="2.19767" fill="#3C8CD5" fill-opacity="0.11"/>
<circle cx="28.5697" cy="81.3144" r="2.19767" fill="#3C8CD5" fill-opacity="0.11"/>
<circle cx="37.3605" cy="81.3144" r="2.19767" fill="#3C8CD5" fill-opacity="0.11"/>
<circle cx="46.151" cy="81.3144" r="2.19767" fill="#3C8CD5" fill-opacity="0.11"/>
<circle cx="54.9418" cy="81.3144" r="2.19767" fill="#3C8CD5" fill-opacity="0.11"/>
<circle cx="63.7326" cy="81.3144" r="2.19767" fill="#3C8CD5" fill-opacity="0.11"/>
<circle cx="72.5234" cy="81.3144" r="2.19767" fill="#3C8CD5" fill-opacity="0.11"/>
<circle cx="2.19767" cy="90.1049" r="2.19767" fill="#3C8CD5" fill-opacity="0.11"/>
<circle cx="10.9884" cy="90.1049" r="2.19767" fill="#3C8CD5" fill-opacity="0.11"/>
<circle cx="19.779" cy="90.1049" r="2.19767" fill="#3C8CD5" fill-opacity="0.11"/>
<circle cx="28.5697" cy="90.1049" r="2.19767" fill="#3C8CD5" fill-opacity="0.11"/>
<circle cx="37.3605" cy="90.1049" r="2.19767" fill="#3C8CD5" fill-opacity="0.11"/>
<circle cx="46.151" cy="90.1049" r="2.19767" fill="#3C8CD5" fill-opacity="0.11"/>
<circle cx="54.9418" cy="90.1049" r="2.19767" fill="#3C8CD5" fill-opacity="0.11"/>
<circle cx="63.7326" cy="90.1049" r="2.19767" fill="#3C8CD5" fill-opacity="0.11"/>
<circle cx="72.5234" cy="90.1049" r="2.19767" fill="#3C8CD5" fill-opacity="0.11"/>
</svg>
