<svg width="70" height="66" viewBox="0 0 70 66" fill="none" xmlns="http://www.w3.org/2000/svg">
<path d="M22.0383 64.1675C22.0383 64.9837 21.3477 65.6744 20.5314 65.6744C19.7152 65.6744 19.0245 64.9837 19.0245 64.1675C19.0245 63.3512 19.7152 62.6606 20.5314 62.6606C21.3477 62.7234 22.0383 63.3512 22.0383 64.1675Z" fill="#F9F7F0"/>
<path d="M31.5187 64.1675C31.5187 64.9837 30.8281 65.6744 30.0118 65.6744C29.1956 65.6744 28.5049 64.9837 28.5049 64.1675C28.5049 63.3512 29.1956 62.6606 30.0118 62.6606C30.8281 62.7234 31.5187 63.3512 31.5187 64.1675Z" fill="#F9F7F0"/>
<path d="M40.9999 64.1675C40.9999 64.9837 40.3093 65.6744 39.493 65.6744C38.6768 65.6744 37.9861 64.9837 37.9861 64.1675C37.9861 63.3512 38.6768 62.6606 39.493 62.6606C40.3093 62.7234 40.9999 63.3512 40.9999 64.1675Z" fill="#F9F7F0"/>
<path d="M50.4809 64.1675C50.4809 64.9837 49.7902 65.6744 48.974 65.6744C48.1578 65.6744 47.4671 64.9837 47.4671 64.1675C47.4671 63.3512 48.1578 62.6606 48.974 62.6606C49.7902 62.7234 50.4809 63.3512 50.4809 64.1675Z" fill="#F9F7F0"/>
<path d="M12.4942 55.2529C12.4942 56.0692 11.8035 56.7598 10.9873 56.7598C10.1711 56.7598 9.48041 56.0692 9.48041 55.2529C9.48041 54.4367 10.1711 53.746 10.9873 53.746C11.8663 53.746 12.4942 54.4367 12.4942 55.2529Z" fill="#F9F7F0"/>
<path d="M22.0383 55.2529C22.0383 56.0692 21.3477 56.7598 20.5314 56.7598C19.7152 56.7598 19.0245 56.0692 19.0245 55.2529C19.0245 54.4367 19.7152 53.746 20.5314 53.746C21.3477 53.746 22.0383 54.4367 22.0383 55.2529Z" fill="#F9F7F0"/>
<path d="M31.5187 55.2529C31.5187 56.0692 30.8281 56.7598 30.0118 56.7598C29.1956 56.7598 28.5049 56.0692 28.5049 55.2529C28.5049 54.4367 29.1956 53.746 30.0118 53.746C30.8281 53.746 31.5187 54.4367 31.5187 55.2529Z" fill="#F9F7F0"/>
<path d="M40.9999 55.2529C40.9999 56.0692 40.3093 56.7598 39.493 56.7598C38.6768 56.7598 37.9861 56.0692 37.9861 55.2529C37.9861 54.4367 38.6768 53.746 39.493 53.746C40.3093 53.746 40.9999 54.4367 40.9999 55.2529Z" fill="#F9F7F0"/>
<path d="M50.4809 55.2529C50.4809 56.0692 49.7902 56.7598 48.974 56.7598C48.1578 56.7598 47.4671 56.0692 47.4671 55.2529C47.4671 54.4367 48.1578 53.746 48.974 53.746C49.7902 53.746 50.4809 54.4367 50.4809 55.2529Z" fill="#F9F7F0"/>
<path d="M59.9613 55.2529C59.9613 56.0692 59.2706 56.7598 58.4544 56.7598C57.6382 56.7598 56.9475 56.0692 56.9475 55.2529C56.9475 54.4367 57.6382 53.746 58.4544 53.746C59.3334 53.746 59.9613 54.4367 59.9613 55.2529Z" fill="#F9F7F0"/>
<path d="M12.4942 46.2735C12.4942 47.0898 11.8035 47.7804 10.9873 47.7804C10.1711 47.7804 9.48041 47.0898 9.48041 46.2735C9.48041 45.4573 10.1711 44.7667 10.9873 44.7667C11.8663 44.7667 12.4942 45.4573 12.4942 46.2735Z" fill="#F9F7F0"/>
<path d="M22.0383 46.2735C22.0383 47.0898 21.3477 47.7804 20.5314 47.7804C19.7152 47.7804 19.0245 47.0898 19.0245 46.2735C19.0245 45.4573 19.7152 44.7667 20.5314 44.7667C21.3477 44.7667 22.0383 45.4573 22.0383 46.2735Z" fill="#F9F7F0"/>
<path d="M31.5187 46.2735C31.5187 47.0898 30.8281 47.7804 30.0118 47.7804C29.1956 47.7804 28.5049 47.0898 28.5049 46.2735C28.5049 45.4573 29.1956 44.7667 30.0118 44.7667C30.8281 44.7667 31.5187 45.4573 31.5187 46.2735Z" fill="#F9F7F0"/>
<path d="M40.9999 46.2735C40.9999 47.0898 40.3093 47.7804 39.493 47.7804C38.6768 47.7804 37.9861 47.0898 37.9861 46.2735C37.9861 45.4573 38.6768 44.7667 39.493 44.7667C40.3093 44.7667 40.9999 45.4573 40.9999 46.2735Z" fill="#F9F7F0"/>
<path d="M50.4809 46.2735C50.4809 47.0898 49.7902 47.7804 48.974 47.7804C48.1578 47.7804 47.4671 47.0898 47.4671 46.2735C47.4671 45.4573 48.1578 44.7667 48.974 44.7667C49.7902 44.7667 50.4809 45.4573 50.4809 46.2735Z" fill="#F9F7F0"/>
<path d="M59.9613 46.2735C59.9613 47.0898 59.2706 47.7804 58.4544 47.7804C57.6382 47.7804 56.9475 47.0898 56.9475 46.2735C56.9475 45.4573 57.6382 44.7667 58.4544 44.7667C59.3334 44.7667 59.9613 45.4573 59.9613 46.2735Z" fill="#F9F7F0"/>
<path d="M3.01377 37.2961C3.01377 38.1123 2.32312 38.803 1.50689 38.803C0.690657 38.803 0 38.1123 0 37.2961C0 36.4798 0.690657 35.7892 1.50689 35.7892C2.38591 35.852 3.01377 36.4798 3.01377 37.2961Z" fill="#F9F7F0"/>
<path d="M12.4942 37.2961C12.4942 38.1123 11.8035 38.803 10.9873 38.803C10.1711 38.803 9.48041 38.1123 9.48041 37.2961C9.48041 36.4798 10.1711 35.7892 10.9873 35.7892C11.8663 35.852 12.4942 36.4798 12.4942 37.2961Z" fill="#F9F7F0"/>
<path d="M22.0383 37.2961C22.0383 38.1123 21.3477 38.803 20.5314 38.803C19.7152 38.803 19.0245 38.1123 19.0245 37.2961C19.0245 36.4798 19.7152 35.7892 20.5314 35.7892C21.3477 35.852 22.0383 36.4798 22.0383 37.2961Z" fill="#F9F7F0"/>
<path d="M31.5187 37.2961C31.5187 38.1123 30.8281 38.803 30.0118 38.803C29.1956 38.803 28.5049 38.1123 28.5049 37.2961C28.5049 36.4798 29.1956 35.7892 30.0118 35.7892C30.8281 35.852 31.5187 36.4798 31.5187 37.2961Z" fill="#F9F7F0"/>
<path d="M40.9999 37.2961C40.9999 38.1123 40.3093 38.803 39.493 38.803C38.6768 38.803 37.9861 38.1123 37.9861 37.2961C37.9861 36.4798 38.6768 35.7892 39.493 35.7892C40.3093 35.852 40.9999 36.4798 40.9999 37.2961Z" fill="#F9F7F0"/>
<path d="M50.4809 37.2961C50.4809 38.1123 49.7902 38.803 48.974 38.803C48.1578 38.803 47.4671 38.1123 47.4671 37.2961C47.4671 36.4798 48.1578 35.7892 48.974 35.7892C49.7902 35.852 50.4809 36.4798 50.4809 37.2961Z" fill="#F9F7F0"/>
<path d="M59.9613 37.2961C59.9613 38.1123 59.2706 38.803 58.4544 38.803C57.6382 38.803 56.9475 38.1123 56.9475 37.2961C56.9475 36.4798 57.6382 35.7892 58.4544 35.7892C59.3334 35.852 59.9613 36.4798 59.9613 37.2961Z" fill="#F9F7F0"/>
<path d="M69.4425 37.2961C69.4425 38.1123 68.7518 38.803 67.9356 38.803C67.1194 38.803 66.4287 38.1123 66.4287 37.2961C66.4287 36.4798 67.1194 35.7892 67.9356 35.7892C68.8146 35.852 69.4425 36.4798 69.4425 37.2961Z" fill="#F9F7F0"/>
<path d="M3.01377 28.3802C3.01377 29.1964 2.32312 29.8871 1.50689 29.8871C0.690657 29.8871 0 29.1964 0 28.3802C0 27.5639 0.690657 26.8733 1.50689 26.8733C2.38591 26.8733 3.01377 27.5639 3.01377 28.3802Z" fill="#F9F7F0"/>
<path d="M12.4942 28.3802C12.4942 29.1964 11.8035 29.8871 10.9873 29.8871C10.1711 29.8871 9.48041 29.1964 9.48041 28.3802C9.48041 27.5639 10.1711 26.8733 10.9873 26.8733C11.8663 26.8733 12.4942 27.5639 12.4942 28.3802Z" fill="#F9F7F0"/>
<path d="M22.0383 28.3802C22.0383 29.1964 21.3477 29.8871 20.5314 29.8871C19.7152 29.8871 19.0245 29.1964 19.0245 28.3802C19.0245 27.5639 19.7152 26.8733 20.5314 26.8733C21.3477 26.8733 22.0383 27.5639 22.0383 28.3802Z" fill="#F9F7F0"/>
<path d="M31.5187 28.3802C31.5187 29.1964 30.8281 29.8871 30.0118 29.8871C29.1956 29.8871 28.5049 29.1964 28.5049 28.3802C28.5049 27.5639 29.1956 26.8733 30.0118 26.8733C30.8281 26.8733 31.5187 27.5639 31.5187 28.3802Z" fill="#F9F7F0"/>
<path d="M40.9999 28.3802C40.9999 29.1964 40.3093 29.8871 39.493 29.8871C38.6768 29.8871 37.9861 29.1964 37.9861 28.3802C37.9861 27.5639 38.6768 26.8733 39.493 26.8733C40.3093 26.8733 40.9999 27.5639 40.9999 28.3802Z" fill="#F9F7F0"/>
<path d="M50.4809 28.3802C50.4809 29.1964 49.7902 29.8871 48.974 29.8871C48.1578 29.8871 47.4671 29.1964 47.4671 28.3802C47.4671 27.5639 48.1578 26.8733 48.974 26.8733C49.7902 26.8733 50.4809 27.5639 50.4809 28.3802Z" fill="#F9F7F0"/>
<path d="M59.9613 28.3802C59.9613 29.1964 59.2706 29.8871 58.4544 29.8871C57.6382 29.8871 56.9475 29.1964 56.9475 28.3802C56.9475 27.5639 57.6382 26.8733 58.4544 26.8733C59.3334 26.8733 59.9613 27.5639 59.9613 28.3802Z" fill="#F9F7F0"/>
<path d="M69.4425 28.3802C69.4425 29.1964 68.7518 29.8871 67.9356 29.8871C67.1194 29.8871 66.4287 29.1964 66.4287 28.3802C66.4287 27.5639 67.1194 26.8733 67.9356 26.8733C68.8146 26.8733 69.4425 27.5639 69.4425 28.3802Z" fill="#F9F7F0"/>
<path d="M12.4942 19.4008C12.4942 20.217 11.8035 20.9077 10.9873 20.9077C10.1711 20.9077 9.48041 20.217 9.48041 19.4008C9.48041 18.5846 10.1711 17.8939 10.9873 17.8939C11.8663 17.8939 12.4942 18.5846 12.4942 19.4008Z" fill="#F9F7F0"/>
<path d="M22.0383 19.4008C22.0383 20.217 21.3477 20.9077 20.5314 20.9077C19.7152 20.9077 19.0245 20.217 19.0245 19.4008C19.0245 18.5846 19.7152 17.8939 20.5314 17.8939C21.3477 17.8939 22.0383 18.5846 22.0383 19.4008Z" fill="#F9F7F0"/>
<path d="M31.5187 19.4008C31.5187 20.217 30.8281 20.9077 30.0118 20.9077C29.1956 20.9077 28.5049 20.217 28.5049 19.4008C28.5049 18.5846 29.1956 17.8939 30.0118 17.8939C30.8281 17.8939 31.5187 18.5846 31.5187 19.4008Z" fill="#F9F7F0"/>
<path d="M40.9999 19.4008C40.9999 20.217 40.3093 20.9077 39.493 20.9077C38.6768 20.9077 37.9861 20.217 37.9861 19.4008C37.9861 18.5846 38.6768 17.8939 39.493 17.8939C40.3093 17.8939 40.9999 18.5846 40.9999 19.4008Z" fill="#F9F7F0"/>
<path d="M50.4809 19.4008C50.4809 20.217 49.7902 20.9077 48.974 20.9077C48.1578 20.9077 47.4671 20.217 47.4671 19.4008C47.4671 18.5846 48.1578 17.8939 48.974 17.8939C49.7902 17.8939 50.4809 18.5846 50.4809 19.4008Z" fill="#F9F7F0"/>
<path d="M59.9613 19.4008C59.9613 20.217 59.2706 20.9077 58.4544 20.9077C57.6382 20.9077 56.9475 20.217 56.9475 19.4008C56.9475 18.5846 57.6382 17.8939 58.4544 17.8939C59.3334 17.8939 59.9613 18.5846 59.9613 19.4008Z" fill="#F9F7F0"/>
<path d="M12.4942 10.4228C12.4942 11.239 11.8035 11.9297 10.9873 11.9297C10.1711 11.9297 9.48041 11.239 9.48041 10.4228C9.48041 9.60655 10.1711 8.91589 10.9873 8.91589C11.8663 8.97868 12.4942 9.60655 12.4942 10.4228Z" fill="#F9F7F0"/>
<path d="M22.0383 10.4228C22.0383 11.239 21.3477 11.9297 20.5314 11.9297C19.7152 11.9297 19.0245 11.239 19.0245 10.4228C19.0245 9.60655 19.7152 8.91589 20.5314 8.91589C21.3477 8.97868 22.0383 9.60655 22.0383 10.4228Z" fill="#F9F7F0"/>
<path d="M31.5187 10.4228C31.5187 11.239 30.8281 11.9297 30.0118 11.9297C29.1956 11.9297 28.5049 11.239 28.5049 10.4228C28.5049 9.60655 29.1956 8.91589 30.0118 8.91589C30.8281 8.97868 31.5187 9.60655 31.5187 10.4228Z" fill="#F9F7F0"/>
<path d="M40.9999 10.4228C40.9999 11.239 40.3093 11.9297 39.493 11.9297C38.6768 11.9297 37.9861 11.239 37.9861 10.4228C37.9861 9.60655 38.6768 8.91589 39.493 8.91589C40.3093 8.97868 40.9999 9.60655 40.9999 10.4228Z" fill="#F9F7F0"/>
<path d="M50.4809 10.4228C50.4809 11.239 49.7902 11.9297 48.974 11.9297C48.1578 11.9297 47.4671 11.239 47.4671 10.4228C47.4671 9.60655 48.1578 8.91589 48.974 8.91589C49.7902 8.97868 50.4809 9.60655 50.4809 10.4228Z" fill="#F9F7F0"/>
<path d="M59.9613 10.4228C59.9613 11.239 59.2706 11.9297 58.4544 11.9297C57.6382 11.9297 56.9475 11.239 56.9475 10.4228C56.9475 9.60655 57.6382 8.91589 58.4544 8.91589C59.3334 8.97868 59.9613 9.60655 59.9613 10.4228Z" fill="#F9F7F0"/>
<path d="M22.0383 1.50689C22.0383 2.32312 21.3477 3.01378 20.5314 3.01378C19.7152 3.01378 19.0245 2.32312 19.0245 1.50689C19.0245 0.690657 19.7152 0 20.5314 0C21.3477 0 22.0383 0.690657 22.0383 1.50689Z" fill="#F9F7F0"/>
<path d="M31.5187 1.50689C31.5187 2.32312 30.8281 3.01378 30.0118 3.01378C29.1956 3.01378 28.5049 2.32312 28.5049 1.50689C28.5049 0.690657 29.1956 0 30.0118 0C30.8281 0 31.5187 0.690657 31.5187 1.50689Z" fill="#F9F7F0"/>
<path d="M40.9999 1.50689C40.9999 2.32312 40.3093 3.01378 39.493 3.01378C38.6768 3.01378 37.9861 2.32312 37.9861 1.50689C37.9861 0.690657 38.6768 0 39.493 0C40.3093 0 40.9999 0.690657 40.9999 1.50689Z" fill="#F9F7F0"/>
<path d="M50.4809 1.50689C50.4809 2.32312 49.7902 3.01378 48.974 3.01378C48.1578 3.01378 47.4671 2.32312 47.4671 1.50689C47.4671 0.690657 48.1578 0 48.974 0C49.7902 0 50.4809 0.690657 50.4809 1.50689Z" fill="#F9F7F0"/>
</svg>
