<svg width="192" height="245" viewBox="0 0 192 245" fill="none" xmlns="http://www.w3.org/2000/svg">
<mask id="mask0_6_316" style="mask-type:alpha" maskUnits="userSpaceOnUse" x="-82" y="0" width="274" height="274">
<circle cx="55" cy="137" r="137" fill="#F9F7F0" fill-opacity="0.5"/>
</mask>
<g mask="url(#mask0_6_316)">
<circle cx="23.501" cy="6.00476" r="6.00476" fill="#F9F7F0" fill-opacity="0.5"/>
<circle cx="23.501" cy="43.2343" r="6.00476" fill="#F9F7F0" fill-opacity="0.5"/>
<circle cx="23.501" cy="80.4638" r="6.00476" fill="#F9F7F0" fill-opacity="0.5"/>
<circle cx="23.501" cy="117.693" r="6.00476" fill="#F9F7F0" fill-opacity="0.5"/>
<circle cx="23.501" cy="154.923" r="6.00476" fill="#F9F7F0" fill-opacity="0.5"/>
<circle cx="23.501" cy="192.152" r="6.00476" fill="#F9F7F0" fill-opacity="0.5"/>
<circle cx="23.501" cy="229.382" r="6.00476" fill="#F9F7F0" fill-opacity="0.5"/>
<circle cx="57.1276" cy="6.00476" r="6.00476" fill="#F9F7F0" fill-opacity="0.5"/>
<circle cx="57.1276" cy="43.2343" r="6.00476" fill="#F9F7F0" fill-opacity="0.5"/>
<circle cx="57.1276" cy="80.4638" r="6.00476" fill="#F9F7F0" fill-opacity="0.5"/>
<circle cx="57.1276" cy="117.693" r="6.00476" fill="#F9F7F0" fill-opacity="0.5"/>
<circle cx="57.1276" cy="154.923" r="6.00476" fill="#F9F7F0" fill-opacity="0.5"/>
<circle cx="57.1276" cy="192.152" r="6.00476" fill="#F9F7F0" fill-opacity="0.5"/>
<circle cx="57.1276" cy="229.382" r="6.00476" fill="#F9F7F0" fill-opacity="0.5"/>
<circle cx="90.7543" cy="6.00476" r="6.00476" fill="#F9F7F0" fill-opacity="0.5"/>
<circle cx="90.7543" cy="43.2343" r="6.00476" fill="#F9F7F0" fill-opacity="0.5"/>
<circle cx="90.7543" cy="80.4638" r="6.00476" fill="#F9F7F0" fill-opacity="0.5"/>
<circle cx="90.7543" cy="117.693" r="6.00476" fill="#F9F7F0" fill-opacity="0.5"/>
<circle cx="90.7543" cy="154.923" r="6.00476" fill="#F9F7F0" fill-opacity="0.5"/>
<circle cx="90.7543" cy="192.152" r="6.00476" fill="#F9F7F0" fill-opacity="0.5"/>
<circle cx="90.7543" cy="229.382" r="6.00476" fill="#F9F7F0" fill-opacity="0.5"/>
<circle cx="124.381" cy="6.00476" r="6.00476" fill="#F9F7F0" fill-opacity="0.5"/>
<circle cx="124.381" cy="43.2343" r="6.00476" fill="#F9F7F0" fill-opacity="0.5"/>
<circle cx="124.381" cy="80.4638" r="6.00476" fill="#F9F7F0" fill-opacity="0.5"/>
<circle cx="124.381" cy="117.693" r="6.00476" fill="#F9F7F0" fill-opacity="0.5"/>
<circle cx="124.381" cy="154.923" r="6.00476" fill="#F9F7F0" fill-opacity="0.5"/>
<circle cx="124.381" cy="192.152" r="6.00476" fill="#F9F7F0" fill-opacity="0.5"/>
<circle cx="124.381" cy="229.382" r="6.00476" fill="#F9F7F0" fill-opacity="0.5"/>
<circle cx="158.008" cy="6.00476" r="6.00476" fill="#F9F7F0" fill-opacity="0.5"/>
<circle cx="158.008" cy="43.2343" r="6.00476" fill="#F9F7F0" fill-opacity="0.5"/>
<circle cx="158.008" cy="80.4638" r="6.00476" fill="#F9F7F0" fill-opacity="0.5"/>
<circle cx="158.008" cy="117.693" r="6.00476" fill="#F9F7F0" fill-opacity="0.5"/>
<circle cx="158.008" cy="154.923" r="6.00476" fill="#F9F7F0" fill-opacity="0.5"/>
<circle cx="158.008" cy="192.152" r="6.00476" fill="#F9F7F0" fill-opacity="0.5"/>
<circle cx="158.008" cy="229.382" r="6.00476" fill="#F9F7F0" fill-opacity="0.5"/>
<circle cx="191.634" cy="6.00476" r="6.00476" fill="#F9F7F0" fill-opacity="0.5"/>
<circle cx="191.634" cy="43.2343" r="6.00476" fill="#F9F7F0" fill-opacity="0.5"/>
<circle cx="191.634" cy="80.4638" r="6.00476" fill="#F9F7F0" fill-opacity="0.5"/>
<circle cx="191.634" cy="117.693" r="6.00476" fill="#F9F7F0" fill-opacity="0.5"/>
<circle cx="191.634" cy="154.923" r="6.00476" fill="#F9F7F0" fill-opacity="0.5"/>
<circle cx="191.634" cy="192.152" r="6.00476" fill="#F9F7F0" fill-opacity="0.5"/>
<circle cx="191.634" cy="229.382" r="6.00476" fill="#F9F7F0" fill-opacity="0.5"/>
</g>
</svg>
